<svg class="icon" viewBox="0 0 1024 1024" xmlns="http://www.w3.org/2000/svg" width="200" height="200"><defs><style/></defs><path d="M512 115.098a450.56 450.56 0 1 0 450.56 450.56A450.56 450.56 0 0 0 512 115.098zm0 849.92a399.36 399.36 0 1 1 399.36-399.36A399.77 399.77 0 0 1 512 965.018zM314.982 57.139a25.6 25.6 0 1 0-18.227-47.718A575.078 575.078 0 0 0 20.48 235.315a25.805 25.805 0 0 0 7.782 35.43 24.371 24.371 0 0 0 13.722 4.097 25.19 25.19 0 0 0 20.48-11.879A526.336 526.336 0 0 1 314.982 57.14zm689.562 178.176a575.078 575.078 0 0 0-277.3-225.894 25.6 25.6 0 1 0-18.226 47.718A526.336 526.336 0 0 1 962.56 262.963a25.19 25.19 0 0 0 20.48 11.879 24.371 24.371 0 0 0 13.722-4.096 25.805 25.805 0 0 0 7.782-35.43z"/><path d="M537.6 557.26V304.539a25.6 25.6 0 1 0-51.2 0v274.841l159.949 151.757a25.19 25.19 0 0 0 17.613 6.963 24.986 24.986 0 0 0 18.432-7.987 25.395 25.395 0 0 0 0-36.045z"/></svg>