<svg class="icon" viewBox="0 0 1024 1024" xmlns="http://www.w3.org/2000/svg" width="200" height="200"><defs><style/></defs><path d="M901.12 133.12H734.822V71.68a25.6 25.6 0 0 0-51.2 0v61.44h-343.04V71.68a25.6 25.6 0 0 0-51.2 0v61.44H122.88A122.88 122.88 0 0 0 0 256v573.44a122.88 122.88 0 0 0 122.88 122.88h778.24A122.88 122.88 0 0 0 1024 829.44V256a122.88 122.88 0 0 0-122.88-122.88zm-778.24 51.2h166.502v40.96a25.6 25.6 0 0 0 51.2 0v-40.96h343.04v40.96a25.6 25.6 0 0 0 51.2 0v-40.96H901.12A71.68 71.68 0 0 1 972.8 256v105.062H51.2V256a71.68 71.68 0 0 1 71.68-71.68zm778.24 716.8H122.88a71.68 71.68 0 0 1-71.68-71.68V412.262h921.6V829.44a71.68 71.68 0 0 1-71.68 71.68z"/><path d="M322.56 524.902H209.92a25.6 25.6 0 0 0 0 51.2h112.64a25.6 25.6 0 0 0 0-51.2zm245.76 0H455.68a25.6 25.6 0 0 0 0 51.2h112.64a25.6 25.6 0 0 0 0-51.2zm245.76 0H701.44a25.6 25.6 0 0 0 0 51.2h112.64a25.6 25.6 0 0 0 0-51.2zm-491.52 163.84H209.92a25.6 25.6 0 0 0 0 51.2h112.64a25.6 25.6 0 0 0 0-51.2zm245.76 0H455.68a25.6 25.6 0 0 0 0 51.2h112.64a25.6 25.6 0 0 0 0-51.2zm245.76 0H701.44a25.6 25.6 0 0 0 0 51.2h112.64a25.6 25.6 0 0 0 0-51.2z"/></svg>