<svg class="icon" viewBox="0 0 1024 1024" xmlns="http://www.w3.org/2000/svg" width="200" height="200"><defs><style/></defs><path d="M315.393 1023.995a283.442 283.442 0 0 1-200.498-483.94L595.968 59.187a201.522 201.522 0 0 1 343.857 143.36 200.089 200.089 0 0 1-58.982 143.358L430.285 796.463A119.398 119.398 0 0 1 261.326 627.71l438.27-440.113a25.6 25.6 0 0 1 36.044 36.25L298.395 661.09a68.198 68.198 0 0 0 0 96.46 69.836 69.836 0 0 0 96.46 0l450.558-450.557a150.322 150.322 0 1 0-213.4-211.762L151.143 576.1a232.447 232.447 0 0 0 328.703 328.702l468.375-468.375a25.6 25.6 0 1 1 36.25 36.044l-468.58 469.604a282.213 282.213 0 0 1-200.499 81.92z"/></svg>