<svg class="icon" viewBox="0 0 1024 1024" xmlns="http://www.w3.org/2000/svg" width="200" height="200"><defs><style/></defs><path d="M778.24 206.438h-46.08v-59.596a66.56 66.56 0 0 0-66.56-66.56H358.4a66.56 66.56 0 0 0-66.56 66.56v59.801h-46.08A245.76 245.76 0 0 0 0 452.403v368.64a122.88 122.88 0 0 0 122.88 122.88h778.24A122.88 122.88 0 0 0 1024 821.043v-368.64a245.76 245.76 0 0 0-245.76-245.965zm-435.2-59.596a15.36 15.36 0 0 1 15.36-15.36h307.2a15.36 15.36 0 0 1 15.36 15.36v59.801H343.04zm-97.28 110.796h46.08v98.919a25.6 25.6 0 1 0 51.2 0v-98.919h337.92v98.919a25.6 25.6 0 1 0 51.2 0v-98.919h46.08a194.765 194.765 0 0 1 194.56 194.56V701.03H51.2V452.198a194.765 194.765 0 0 1 194.56-194.56zm655.36 634.88H122.88a71.68 71.68 0 0 1-71.68-71.68V752.23h921.6v68.608a71.68 71.68 0 0 1-71.68 71.68z"/></svg>