<svg class="icon" viewBox="0 0 1024 1024" xmlns="http://www.w3.org/2000/svg" width="200" height="200"><defs><style/></defs><path d="M268.902 1024a25.395 25.395 0 0 1-24.78-31.54l104.038-439.5H232.448a25.805 25.805 0 0 1-20.48-9.83 25.395 25.395 0 0 1-4.71-21.914L327.68 20.48A25.805 25.805 0 0 1 352.666 0h438.886a26.01 26.01 0 0 1 22.118 12.698 25.6 25.6 0 0 1 0 25.395L605.39 410.829h129.638a25.6 25.6 0 0 1 20.48 41.984l-466.944 561.97a25.6 25.6 0 0 1-19.66 9.217zm-3.89-521.421h116.12a25.6 25.6 0 0 1 24.986 31.54l-86.835 363.519 361.267-435.61H561.562a25.19 25.19 0 0 1-21.914-11.468 26.01 26.01 0 0 1 0-25.6L747.93 51.2H372.94z"/></svg>