<svg class="icon" viewBox="0 0 1024 1024" xmlns="http://www.w3.org/2000/svg" width="200" height="200"><defs><style/></defs><path d="M901.12 169.78h-179.2V157.9A107.725 107.725 0 0 0 614.4 50.38H409.6A107.725 107.725 0 0 0 302.08 157.9v11.88h-179.2A122.88 122.88 0 0 0 0 292.66v532.48a122.88 122.88 0 0 0 122.88 122.88h778.24A122.88 122.88 0 0 0 1024 825.14V292.66a122.88 122.88 0 0 0-122.88-122.88zM353.28 157.9a56.32 56.32 0 0 1 56.32-55.5h204.8a56.32 56.32 0 0 1 56.32 56.32v11.878H353.28zM972.8 825.14a71.68 71.68 0 0 1-71.68 71.68H122.88a71.68 71.68 0 0 1-71.68-71.68V292.66a71.68 71.68 0 0 1 71.68-71.68h778.24a71.68 71.68 0 0 1 71.68 71.68z"/><path d="M512 270.54A288.358 288.358 0 1 0 800.358 558.9 288.768 288.768 0 0 0 512 270.54zm0 525.722A237.158 237.158 0 1 1 749.158 558.9 237.568 237.568 0 0 1 512 796.262zm370.278-522.24h-40.96a25.6 25.6 0 0 0 0 51.2h40.96a25.6 25.6 0 0 0 0-51.2z"/></svg>