<svg class="icon" viewBox="0 0 1024 1024" xmlns="http://www.w3.org/2000/svg" width="200" height="200"><defs><style/></defs><path d="M288.36 577.736a25.6 25.6 0 0 0-36.044 36.659l43.007 43.007a25.6 25.6 0 1 0 36.25-36.249zm114.892 114.687a25.6 25.6 0 0 0-36.25 36.25l43.008 43.007a25.6 25.6 0 1 0 36.25-36.25z"/><path d="M1012.117 385.225L895.792 268.9a20.48 20.48 0 0 0-14.131-5.734 21.913 21.913 0 0 0-11.878 3.686 81.92 81.92 0 0 1-112.025-112.639 20.48 20.48 0 0 0-2.253-26.01L638.77 11.879a40.96 40.96 0 0 0-57.343 0L35.639 557.461a122.879 122.879 0 0 0 0 172.235l258.456 258.66a121.855 121.855 0 0 0 172.235 0l545.787-545.787a40.96 40.96 0 0 0 0-57.344zM546.611 835.782l-28.467-28.467a25.6 25.6 0 0 0-36.25 36.249l28.468 28.467-80.281 80.076a70.655 70.655 0 0 1-99.942 0L71.89 693.652a70.655 70.655 0 0 1 0-99.942l80.076-80.076 28.467 28.467a25.6 25.6 0 1 0 36.249-36.25l-28.467-28.466L610.098 55.5l92.774 92.774a133.119 133.119 0 0 0 28.877 143.359 132.504 132.504 0 0 0 143.358 28.876l92.774 92.774z"/></svg>