<svg class="icon" viewBox="0 0 1024 1024" xmlns="http://www.w3.org/2000/svg" width="200" height="200"><defs><style/></defs><path d="M133.12 450.56A61.44 61.44 0 1 1 71.68 512a61.44 61.44 0 0 1 61.44-61.44m0-51.2A112.64 112.64 0 1 0 245.76 512a112.64 112.64 0 0 0-112.64-112.64zM512 450.56A61.44 61.44 0 1 1 450.56 512 61.44 61.44 0 0 1 512 450.56m0-51.2A112.64 112.64 0 1 0 624.64 512 112.64 112.64 0 0 0 512 399.36zm378.88 51.2A61.44 61.44 0 1 1 829.44 512a61.44 61.44 0 0 1 61.44-61.44m0-51.2A112.64 112.64 0 1 0 1003.52 512a112.64 112.64 0 0 0-112.64-112.64z"/></svg>