<svg class="icon" viewBox="0 0 1024 1024" xmlns="http://www.w3.org/2000/svg" width="200" height="200"><defs><style/></defs><path d="M807.731 0h-614.4a40.96 40.96 0 0 0-40.96 40.96v158.72H118.99a25.6 25.6 0 1 0 0 51.2h33.382V486.4H118.99a25.6 25.6 0 1 0 0 51.2h33.382v235.52H118.99a25.6 25.6 0 0 0 0 51.2h33.382v158.72a40.96 40.96 0 0 0 40.96 40.96h614.4a122.88 122.88 0 0 0 122.88-122.88V122.88A122.88 122.88 0 0 0 807.731 0zm71.68 901.12a71.68 71.68 0 0 1-71.68 71.68h-604.16V824.32h76.8a25.6 25.6 0 0 0 0-51.2h-76.8V537.6h76.8a25.6 25.6 0 0 0 0-51.2h-76.8V250.88h76.8a25.6 25.6 0 0 0 0-51.2h-76.8V51.2h604.16a71.68 71.68 0 0 1 71.68 71.68z"/><path d="M582.451 131.891a163.84 163.84 0 1 0 163.84 163.84 163.84 163.84 0 0 0-163.84-163.84zm0 276.48a112.64 112.64 0 1 1 112.64-112.64 112.64 112.64 0 0 1-112.64 112.64z"/><path d="M582.451 482.509a143.36 143.36 0 0 0-143.36 143.36v230.4a36.045 36.045 0 0 0 35.84 35.84h215.04a36.045 36.045 0 0 0 35.84-35.84v-230.4a143.36 143.36 0 0 0-143.36-143.36zm92.16 358.4h-184.32v-215.04a92.16 92.16 0 1 1 184.32 0z"/></svg>