<svg class="icon" viewBox="0 0 1024 1024" xmlns="http://www.w3.org/2000/svg" width="200" height="200"><defs><style/></defs><path d="M875.52 44.032H148.48A148.685 148.685 0 0 0 0 192.512v409.6a148.685 148.685 0 0 0 148.48 148.48h71.68v204.8a25.6 25.6 0 0 0 25.6 24.576h532.48a25.6 25.6 0 0 0 25.6-25.6v-204.8h71.68A148.685 148.685 0 0 0 1024 602.112v-409.6a148.685 148.685 0 0 0-148.48-148.48zM752.64 928.768H271.36v-348.16h481.28zm-506.88-399.36a25.6 25.6 0 0 0-25.6 25.6v13.107H204.8a35.84 35.84 0 1 1 0-71.68h614.4a35.84 35.84 0 0 1 0 71.68h-15.36v-13.107a25.6 25.6 0 0 0-25.6-25.6zm727.04 72.704a97.485 97.485 0 0 1-97.28 97.28h-71.68v-80.077h15.36a87.04 87.04 0 0 0 0-174.08H204.8a87.04 87.04 0 1 0 0 174.08h15.36v80.077h-71.68a97.485 97.485 0 0 1-97.28-97.28v-409.6a97.28 97.28 0 0 1 97.28-97.28h727.04a97.28 97.28 0 0 1 97.28 97.28z"/></svg>