<svg class="icon" viewBox="0 0 1024 1024" xmlns="http://www.w3.org/2000/svg" width="200" height="200"><defs><style/></defs><path d="M860.16 40.96H163.84A122.88 122.88 0 0 0 40.96 163.84v696.32a122.88 122.88 0 0 0 122.88 122.88h696.32a122.88 122.88 0 0 0 122.88-122.88V163.84A122.88 122.88 0 0 0 860.16 40.96zm-607.642 51.2h518.964V354.1a18.022 18.022 0 0 1-18.023 18.022H270.541a18.022 18.022 0 0 1-18.023-18.023zm679.322 768a71.68 71.68 0 0 1-71.68 71.68H163.84a71.68 71.68 0 0 1-71.68-71.68V163.84a71.68 71.68 0 0 1 71.68-71.68h37.478V354.1a69.222 69.222 0 0 0 69.223 69.222h482.918a69.222 69.222 0 0 0 69.223-69.223V92.16h37.478a71.68 71.68 0 0 1 71.68 71.68z"/><path d="M757.76 757.76H266.24a25.6 25.6 0 0 0 0 51.2h491.52a25.6 25.6 0 0 0 0-51.2z"/></svg>