<svg class="icon" viewBox="0 0 1024 1024" xmlns="http://www.w3.org/2000/svg" width="200" height="200"><defs><style/></defs><path d="M798.72 0H225.28A122.88 122.88 0 0 0 102.4 122.88v778.24A122.88 122.88 0 0 0 225.28 1024h573.44A122.88 122.88 0 0 0 921.6 901.12V122.88A122.88 122.88 0 0 0 798.72 0zm71.68 901.12a71.68 71.68 0 0 1-71.68 71.68H225.28a71.68 71.68 0 0 1-71.68-71.68V122.88a71.68 71.68 0 0 1 71.68-71.68h573.44a71.68 71.68 0 0 1 71.68 71.68z"/><path d="M716.8 279.962H307.2a25.6 25.6 0 0 0 0 51.2h409.6a25.6 25.6 0 0 0 0-51.2zm0 206.438H307.2a25.6 25.6 0 0 0 0 51.2h409.6a25.6 25.6 0 0 0 0-51.2zm0 206.438H307.2a25.6 25.6 0 0 0 0 51.2h409.6a25.6 25.6 0 0 0 0-51.2z"/></svg>