<svg class="icon" viewBox="0 0 1024 1024" xmlns="http://www.w3.org/2000/svg" width="200" height="200"><defs><style/></defs><path d="M512 614.4a204.8 204.8 0 0 0 204.8-204.8V204.8a204.8 204.8 0 0 0-409.6 0v204.8A204.8 204.8 0 0 0 512 614.4zM358.4 204.8a153.6 153.6 0 0 1 307.2 0v204.8a153.6 153.6 0 0 1-307.2 0z"/><path d="M537.6 761.651A353.69 353.69 0 0 0 865.28 409.6v-81.92a25.6 25.6 0 0 0-51.2 0v81.92a302.08 302.08 0 0 1-604.16 0v-81.92a25.6 25.6 0 0 0-51.2 0v81.92A353.69 353.69 0 0 0 486.4 761.651v208.691a10.854 10.854 0 0 0 0 2.458H226.509a25.6 25.6 0 0 0 0 51.2H797.49a25.6 25.6 0 0 0 0-51.2H536.986a10.854 10.854 0 0 0 0-2.458z"/></svg>