<svg class="icon" viewBox="0 0 1024 1024" xmlns="http://www.w3.org/2000/svg" width="200" height="200"><defs><style/></defs><path d="M502.17 857.088a25.805 25.805 0 0 1-25.805-25.805V192.922a25.805 25.805 0 0 1 51.814 0v638.156a25.805 25.805 0 0 1-26.01 26.01zm-158.925-80.282a25.805 25.805 0 0 1-25.805-25.804V272.998a25.805 25.805 0 0 1 51.814 0v478.004a25.805 25.805 0 0 1-26.01 25.804zM184.32 696.32a25.805 25.805 0 0 1-25.805-25.805V353.28a25.805 25.805 0 0 1 51.815 0v317.44a25.805 25.805 0 0 1-26.01 25.6zM25.805 596.582A25.805 25.805 0 0 1 0 570.778V453.222a25.805 25.805 0 0 1 51.814 0v117.35a25.805 25.805 0 0 1-26.01 26.01zm654.95 180.224a25.805 25.805 0 0 1-25.395-25.804V272.998a25.805 25.805 0 1 1 51.814 0v478.004a25.805 25.805 0 0 1-26.419 25.804zM839.68 696.32a25.805 25.805 0 0 1-25.805-25.805V353.28a25.805 25.805 0 0 1 51.815 0v317.44a25.805 25.805 0 0 1-26.01 25.6zm158.515-99.738a25.805 25.805 0 0 1-25.805-25.804V453.222a25.805 25.805 0 0 1 51.815 0v117.35a25.805 25.805 0 0 1-26.01 26.01z"/></svg>