<svg class="icon" viewBox="0 0 1024 1024" xmlns="http://www.w3.org/2000/svg" width="200" height="200"><defs><style/></defs><path d="M515.277 1023.998a26.008 26.008 0 0 1-22.322-12.697L58.61 258.721a25.598 25.598 0 0 1 5.12-31.946A670.666 670.666 0 0 1 396.297 81.993a808.076 808.076 0 0 1 227.515 9.42c126.556 17.612 217.89 31.537 297.755-80.684a25.598 25.598 0 0 1 46.281 12.082c0 3.276 36.042 342.398-275.638 384.379a732.306 732.306 0 0 0-386.427 176.318l231.61 402.195a25.393 25.393 0 0 1-9.42 34.814 23.755 23.755 0 0 1-12.696 3.481zM113.9 252.168l165.055 286.698a778.178 778.178 0 0 1 405.881-182.463c187.787-25.188 226.286-175.909 232.43-263.966-88.467 79.456-192.087 64.712-300.623 49.148a765.276 765.276 0 0 0-213.384-9.624A639.949 639.949 0 0 0 113.9 252.168z"/></svg>