<svg class="icon" viewBox="0 0 1024 1024" xmlns="http://www.w3.org/2000/svg" width="200" height="200"><defs><style/></defs><path d="M880.64 20.48H143.36A122.88 122.88 0 0 0 20.48 143.36v737.28a122.88 122.88 0 0 0 122.88 122.88h737.28a122.88 122.88 0 0 0 122.88-122.88V143.36A122.88 122.88 0 0 0 880.64 20.48zm71.68 122.88v179.2H708.198V71.68H880.64a71.68 71.68 0 0 1 71.68 71.68zM380.518 650.24V373.76h276.48v276.48zm276.48 51.2v250.88h-276.48V701.44zm-327.68-51.2H71.68V373.76h257.638zm51.2-327.68V71.68h276.48v250.88zm327.68 51.2H952.32v276.48H708.198zM143.36 71.68h185.958v250.88H71.68v-179.2a71.68 71.68 0 0 1 71.68-71.68zM71.68 880.64v-179.2h257.638v250.88H143.36a71.68 71.68 0 0 1-71.68-71.68zm808.96 71.68H708.198V701.44H952.32v179.2a71.68 71.68 0 0 1-71.68 71.68z"/></svg>