<svg class="icon" viewBox="0 0 1024 1024" xmlns="http://www.w3.org/2000/svg" width="200" height="200"><defs><style/></defs><path d="M860.16 92.16a71.68 71.68 0 0 1 71.68 71.68v696.32a71.68 71.68 0 0 1-71.68 71.68H163.84a71.68 71.68 0 0 1-71.68-71.68V163.84a71.68 71.68 0 0 1 71.68-71.68h696.32m0-51.2H163.84A122.88 122.88 0 0 0 40.96 163.84v696.32a122.88 122.88 0 0 0 122.88 122.88h696.32a122.88 122.88 0 0 0 122.88-122.88V163.84A122.88 122.88 0 0 0 860.16 40.96z"/><path d="M674.406 338.534a30.72 30.72 0 0 1 30.925 30.106v286.72a30.72 30.72 0 0 1-30.925 30.925 30.31 30.31 0 0 1-17.612-5.94l-200.09-143.36a30.72 30.72 0 0 1 0-49.97l200.09-143.36a30.31 30.31 0 0 1 17.612-5.94m0-51.2a81.92 81.92 0 0 0-47.308 15.36l-200.09 143.36a81.92 81.92 0 0 0 0 133.53l200.09 143.36a81.92 81.92 0 0 0 47.308 15.36 81.92 81.92 0 0 0 81.92-81.92V368.64a81.92 81.92 0 0 0-81.92-81.92zM308.43 714.957a25.6 25.6 0 0 1-25.6-25.6V334.643a25.6 25.6 0 1 1 51.2 0v354.714a25.6 25.6 0 0 1-25.6 25.6z"/></svg>