<svg class="icon" viewBox="0 0 1024 1024" xmlns="http://www.w3.org/2000/svg" width="200" height="200"><defs><style/></defs><path d="M512 0a512 512 0 1 0 512 512A512 512 0 0 0 512 0zm348.16 209.715c-20.48 25.805-23.962 66.355-27.034 98.1 0 6.758-1.433 15.36-2.252 20.48-5.53 0-13.312-1.639-17.613-2.458-15.565-2.867-36.864-6.554-46.9 13.312a96.051 96.051 0 0 0-5.939 20.48c-1.228 5.734-4.096 18.227-6.758 26.624a336.282 336.282 0 0 1-77.824-37.069l2.048-10.445a161.382 161.382 0 0 0-2.867-95.027c-6.349-17.613-23.552-24.986-40.96-32.973-12.083-5.325-28.877-12.697-32.359-20.48-5.734-13.107-4.3-75.161 0-130.662A462.438 462.438 0 0 1 860.16 209.715zM51.2 512v-26.01a721.306 721.306 0 0 0 151.552 32.768 239.411 239.411 0 0 0 147.866-38.297 132.3 132.3 0 0 1 18.841-10.445 137.42 137.42 0 0 1 40.96 32.973 170.394 170.394 0 0 0 40.141 33.382c35.84 18.637 85.811 21.914 125.952 24.576a242.688 242.688 0 0 1 54.682 6.963 126.157 126.157 0 0 1 50.79 66.97 188.826 188.826 0 0 1-46.49 9.42 184.32 184.32 0 0 0-79.667 21.505c-38.502 25.805-96.46 122.88-104.857 177.766a444.006 444.006 0 0 0 1.843 124.723A461.414 461.414 0 0 1 51.2 512zM512 972.8h-6.758a420.454 420.454 0 0 1-3.892-120.422c6.554-40.96 58.573-126.772 82.944-143.36a160.973 160.973 0 0 1 57.55-12.698c30.31-3.686 58.777-7.373 77.004-24.166a47.923 47.923 0 0 0 13.312-45.261 171.622 171.622 0 0 0-80.077-105.267 236.134 236.134 0 0 0-71.885-11.06 305.971 305.971 0 0 1-105.881-19.046 150.528 150.528 0 0 1-26.829-23.962A160.973 160.973 0 0 0 384 421.478a73.728 73.728 0 0 0-58.778 15.565 188.211 188.211 0 0 1-119.193 31.13 727.45 727.45 0 0 1-148.07-33.997A461.414 461.414 0 0 1 512 51.2c12.902 0 25.6 0 38.093 1.638-4.301 46.08-10.035 130.458 3.686 159.335a104.243 104.243 0 0 0 58.163 45.465 138.854 138.854 0 0 1 15.565 7.373 121.651 121.651 0 0 1 0 63.283 66.15 66.15 0 0 0 0 42.19c12.083 27.238 95.232 63.692 122.88 68.812a67.994 67.994 0 0 0 11.879 1.229 33.792 33.792 0 0 0 24.576-9.421 110.592 110.592 0 0 0 22.323-53.043 65.536 65.536 0 0 0 58.777-9.421c11.264-11.264 12.903-28.877 15.36-55.5a274.842 274.842 0 0 1 10.24-58.778A460.8 460.8 0 0 1 512 972.8z"/></svg>