<svg class="icon" viewBox="0 0 1024 1024" xmlns="http://www.w3.org/2000/svg" width="200" height="200"><defs><style/></defs><path d="M614.392 1023.987H409.595a25.6 25.6 0 0 1-25.6-24.576l-3.072-72.703a420.654 420.654 0 0 1-69.426-28.876l-53.657 49.356a25.6 25.6 0 0 1-35.43 0L77.618 801.577a25.6 25.6 0 0 1 0-35.43l49.356-53.657a419.835 419.835 0 0 1-28.671-69.426l-73.727-3.072A25.6 25.6 0 0 1 0 614.392V409.595a25.6 25.6 0 0 1 24.576-25.6l72.703-3.072a439.086 439.086 0 0 1 28.876-69.426L76.8 257.84a25.6 25.6 0 0 1 0-35.43L221.591 77.618a25.6 25.6 0 0 1 35.43 0l53.657 49.356a439.086 439.086 0 0 1 70.245-29.695l3.072-72.703A25.6 25.6 0 0 1 409.595 0h204.797a25.6 25.6 0 0 1 25.6 24.576l3.072 72.703a439.086 439.086 0 0 1 69.426 28.876L766.147 76.8a25.6 25.6 0 0 1 35.43 0l144.792 144.792a25.6 25.6 0 0 1 0 35.43l-49.356 53.657a420.654 420.654 0 0 1 28.876 69.426l72.703 3.072a25.6 25.6 0 0 1 25.395 26.419v204.797a25.6 25.6 0 0 1-24.576 25.6l-72.703 3.072a420.654 420.654 0 0 1-28.876 69.426l49.356 53.657a25.6 25.6 0 0 1 0 35.43L802.396 946.369a25.6 25.6 0 0 1-35.43 0l-53.657-49.356a420.654 420.654 0 0 1-69.426 28.876l-3.072 72.703a25.6 25.6 0 0 1-26.419 25.395zm-180.222-51.2h155.646l2.868-66.763a25.395 25.395 0 0 1 18.841-23.552 375.394 375.394 0 0 0 92.159-38.092 25.6 25.6 0 0 1 30.105 3.276l48.947 45.26 110.18-110.18-45.26-48.947a25.6 25.6 0 0 1-3.276-30.105 378.67 378.67 0 0 0 38.092-92.159 25.395 25.395 0 0 1 23.756-18.841l66.56-2.868V434.17l-66.764-2.867a25.395 25.395 0 0 1-23.552-18.841 375.394 375.394 0 0 0-38.092-92.159 25.6 25.6 0 0 1 3.276-30.105l45.26-48.947-110.18-110.18-48.947 45.26a25.6 25.6 0 0 1-30.105 3.276 385.633 385.633 0 0 0-91.954-38.092 25.6 25.6 0 0 1-19.046-23.552L589.816 51.2H434.17l-2.867 66.764a25.6 25.6 0 0 1-19.046 23.552 380.718 380.718 0 0 0-91.75 38.092 25.395 25.395 0 0 1-30.104-3.481L241.25 131.07l-110.18 110.181 45.055 49.152a25.6 25.6 0 0 1 3.481 30.105 378.67 378.67 0 0 0-38.092 91.954 25.6 25.6 0 0 1-23.552 18.841L51.2 434.17v155.646l66.764 2.868a25.6 25.6 0 0 1 23.552 19.046 379.285 379.285 0 0 0 38.092 91.749 25.6 25.6 0 0 1-3.481 30.105l-45.056 49.152 110.181 110.18 49.152-45.055a25.6 25.6 0 0 1 30.105-3.481 377.237 377.237 0 0 0 91.954 38.092 25.395 25.395 0 0 1 18.841 23.756zm564.217-358.395z"/><path d="M511.993 783.35A271.357 271.357 0 1 1 783.35 511.993 271.561 271.561 0 0 1 511.993 783.35zm0-491.514a220.157 220.157 0 1 0 220.158 220.157 220.362 220.362 0 0 0-220.158-220.157z"/></svg>