<svg class="icon" viewBox="0 0 1024 1024" xmlns="http://www.w3.org/2000/svg" width="200" height="200"><defs><style/></defs><path d="M1018.06 510.157C972.187 432.128 800.564 178.995 512 178.995S51.814 432.128 5.94 510.157a40.96 40.96 0 0 0 1.228 44.237C54.886 625.254 225.28 845.004 512 845.004s457.114-219.75 505.037-290.61a40.96 40.96 0 0 0 1.024-44.237zM512 793.805c-254.771 0-411.853-194.56-458.957-262.759 46.49-77.21 203.776-300.85 458.957-300.85s412.467 223.64 458.957 300.85C923.853 599.245 766.77 793.805 512 793.805z"/><path d="M512 307.2A204.8 204.8 0 1 0 716.8 512 204.8 204.8 0 0 0 512 307.2zm0 358.4A153.6 153.6 0 1 1 665.6 512 153.805 153.805 0 0 1 512 665.6z"/></svg>