<svg class="icon" viewBox="0 0 1024 1024" xmlns="http://www.w3.org/2000/svg" width="200" height="200"><defs><style/></defs><path d="M1013.114 228.484a221.768 221.768 0 1 0-443.332 0v3.662H153.306a142.42 142.42 0 0 0-142.42 142.42V881.58A142.42 142.42 0 0 0 153.306 1024h691.753c73.448 0 122.074-57.171 122.074-142.42V372.938a325.53 325.53 0 0 0 45.98-144.454zM791.55 57.58a170.904 170.904 0 0 1 170.7 170.904c0 101.729-123.295 250.659-170.7 305.185-47.61-53.712-170.904-203.456-170.904-305.185A171.107 171.107 0 0 1 791.55 57.58zm125.94 824c0 44.354-18.922 91.556-72.024 91.556H153.713A91.556 91.556 0 0 1 61.75 881.58V374.566a91.556 91.556 0 0 1 91.556-91.555h424.41c36.216 137.536 188.198 297.657 195.319 305.185a25.636 25.636 0 0 0 18.515 7.934 25.229 25.229 0 0 0 18.31-7.934 1224.403 1224.403 0 0 0 107.63-132.654z"/><path d="M883.105 225.432a91.759 91.759 0 1 0-91.555 91.76 91.759 91.759 0 0 0 91.555-91.76zm-132.45 0a40.691 40.691 0 1 1 40.691 40.692 40.691 40.691 0 0 1-40.691-40.692zm-443.74 174.566a25.839 25.839 0 0 0-36.011 0 25.432 25.432 0 0 0 0 36.012l112.104 112.308-165.003 165.207a25.229 25.229 0 0 0 0 35.808 24.618 24.618 0 0 0 17.904 7.528 25.432 25.432 0 0 0 18.108-7.528L419.02 584.33l123.905 123.905-100.507 100.508a25.432 25.432 0 0 0 0 36.012 25.025 25.025 0 0 0 35.808 0l100.711-100.508L688.6 853.91a25.229 25.229 0 0 0 17.905 7.325 26.042 26.042 0 0 0 18.107-7.325 25.432 25.432 0 0 0 0-36.012z"/></svg>