<svg class="icon" viewBox="0 0 1024 1024" xmlns="http://www.w3.org/2000/svg" width="200" height="200"><defs><style/></defs><path d="M512 189.645A307.2 307.2 0 0 0 389.12 778.24v96.46a122.88 122.88 0 0 0 97.485 120.423v2.663A25.6 25.6 0 0 0 512 1024a25.6 25.6 0 0 0 25.6-25.6v-2.662a122.88 122.88 0 0 0 97.28-120.423V778.24A307.2 307.2 0 0 0 512 189.645zm0 757.76a71.885 71.885 0 0 1-71.68-71.885v-3.686h143.36v3.686A71.885 71.885 0 0 1 512 947.2zm102.4-215.45a51.405 51.405 0 0 0-30.72 46.285v40.96H440.32v-40.96a51.405 51.405 0 0 0-30.72-47.104 256.205 256.205 0 1 1 204.8 0zM512 153.805a25.6 25.6 0 0 0 25.6-25.6v-102.4a25.6 25.6 0 0 0-51.2 0v102.4a25.6 25.6 0 0 0 25.6 25.6zm260.915 107.93a25.395 25.395 0 0 0 18.023-7.373l72.499-72.5a25.6 25.6 0 0 0-36.25-36.25l-72.499 72.5a25.6 25.6 0 0 0 0 36.25 26.214 26.214 0 0 0 18.227 7.372zm-539.853-7.373a25.395 25.395 0 0 0 18.023 7.372 26.214 26.214 0 0 0 18.227-7.372 25.6 25.6 0 0 0 0-36.25l-72.5-72.5a25.6 25.6 0 0 0-36.249 36.25z"/><path d="M983.04 471.04h-102.4a25.6 25.6 0 0 0 0 51.2h102.4a25.6 25.6 0 0 0 0-51.2zm-839.68 0H40.96a25.6 25.6 0 0 0 0 51.2h102.4a25.6 25.6 0 0 0 0-51.2z"/></svg>