<svg class="icon" viewBox="0 0 1024 1024" xmlns="http://www.w3.org/2000/svg" width="200" height="200"><defs><style/></defs><path d="M921.105 97.162H726.78a25.57 25.57 0 0 0 0 51.139h194.325a25.57 25.57 0 0 0 0-51.139zm-404.81-76.707A25.57 25.57 0 0 0 491.546 0H345.699a25.57 25.57 0 0 0-24.751 20.455L78.144 991.057a25.57 25.57 0 0 0 49.502 12.273l140.527-562.315H569.07l140.528 562.315a25.57 25.57 0 0 0 24.75 20.455 23.524 23.524 0 0 0 6.342 0 25.57 25.57 0 0 0 18.614-30.887zM281.06 389.877l84.685-338.739h105.344l84.685 338.74z"/></svg>