<svg class="icon" viewBox="0 0 1024 1024" xmlns="http://www.w3.org/2000/svg" width="200" height="200"><defs><style/></defs><path d="M368.64 609.894H158.106a25.6 25.6 0 1 0 0 51.2h204.8v204.8a25.6 25.6 0 0 0 51.2 0V655.36a45.26 45.26 0 0 0-45.466-45.466zm497.254-246.988h-204.8v-204.8a25.6 25.6 0 1 0-51.2 0V368.64a45.26 45.26 0 0 0 45.466 45.466h210.534a25.6 25.6 0 0 0 0-51.2zm0 246.988H655.36a45.26 45.26 0 0 0-45.466 45.466v210.534a25.6 25.6 0 0 0 51.2 0v-204.8h204.8a25.6 25.6 0 0 0 0-51.2zM389.12 132.506a25.6 25.6 0 0 0-25.6 25.6v204.8h-204.8a25.6 25.6 0 1 0 0 51.2h209.92a45.26 45.26 0 0 0 45.466-45.466V158.106a25.6 25.6 0 0 0-24.986-25.6z"/><path d="M880.64 20.48H143.36A122.88 122.88 0 0 0 20.48 143.36v737.28a122.88 122.88 0 0 0 122.88 122.88h737.28a122.88 122.88 0 0 0 122.88-122.88V143.36A122.88 122.88 0 0 0 880.64 20.48zm71.68 860.16a71.68 71.68 0 0 1-71.68 71.68H143.36a71.68 71.68 0 0 1-71.68-71.68V143.36a71.68 71.68 0 0 1 71.68-71.68h737.28a71.68 71.68 0 0 1 71.68 71.68z"/></svg>