<svg class="icon" viewBox="0 0 1024 1024" xmlns="http://www.w3.org/2000/svg" width="200" height="200"><defs><style/></defs><path d="M512.138.002a506.464 506.464 0 0 0-222.615 50.79 25.6 25.6 0 1 0 22.323 46.08 456.288 456.288 0 0 1 200.292-45.67 460.59 460.59 0 1 1-400.993 233.673 25.6 25.6 0 0 0-44.646-25.19A511.993 511.993 0 1 0 512.138.002z"/><path d="M132.44299999999998 161.383a51.2 51.2 0 1 0 102.4 0 51.2 51.2 0 1 0-102.4 0zM661.845 266.239a25.395 25.395 0 0 0-11.674-34.201 312.316 312.316 0 1 0-172.439 590.635 329.519 329.519 0 0 0 34.61 1.843A312.52 312.52 0 0 0 820.769 463.46a25.6 25.6 0 0 0-50.585 7.577 260.707 260.707 0 1 1-143.358-193.738 25.395 25.395 0 0 0 35.02-11.06z"/><path d="M733.32 393.213a51.2 51.2 0 1 0-45.261-56.524 51.2 51.2 0 0 0 45.26 56.524zM460.93800000000005 511.996a51.2 51.2 0 1 0 102.4 0 51.2 51.2 0 1 0-102.4 0z"/></svg>