<svg class="icon" viewBox="0 0 1024 1024" xmlns="http://www.w3.org/2000/svg" width="200" height="200"><defs><style/></defs><path d="M819.2 0H204.8a81.92 81.92 0 0 0-81.92 81.92v860.16A81.92 81.92 0 0 0 204.8 1024h614.4a81.92 81.92 0 0 0 81.92-81.92V81.92A81.92 81.92 0 0 0 819.2 0zM204.8 51.2h614.4a31.13 31.13 0 0 1 30.72 30.72v229.786a709.427 709.427 0 0 1-197.018 66.764 148.275 148.275 0 0 0-282.01 0 711.066 711.066 0 0 1-196.812-65.33V81.92A31.13 31.13 0 0 1 204.8 51.2zm404.48 373.76A97.28 97.28 0 1 1 512 327.68a97.485 97.485 0 0 1 97.28 97.28zM819.2 972.8H204.8a31.13 31.13 0 0 1-30.72-30.72V370.074a767.795 767.795 0 0 0 189.645 60.006 148.275 148.275 0 0 0 296.55 0 766.157 766.157 0 0 0 189.645-61.44v573.44a31.13 31.13 0 0 1-30.72 30.72z"/></svg>