<svg class="icon" viewBox="0 0 1024 1024" xmlns="http://www.w3.org/2000/svg" width="200" height="200"><defs><style/></defs><path d="M1014.375 70.042a26.214 26.214 0 0 0-21.913-4.71l-401.613 94.412a352.256 352.256 0 0 1-160.768 0L31.541 65.331a26.214 26.214 0 0 0-21.914 4.71A25.6 25.6 0 0 0 0 90.113V732.16a147.866 147.866 0 0 0 114.483 144.589l305.357 72.09a404.07 404.07 0 0 0 184.32 0l305.357-72.09A147.866 147.866 0 0 0 1024 732.16V90.112a25.6 25.6 0 0 0-9.626-20.07zm-888.217 757.76A96.87 96.87 0 0 1 51.2 732.16V122.88l367.002 86.835c5.734 1.434 11.264 2.458 16.998 3.482v686.285a17.613 17.613 0 0 1-3.482 0zM486.4 907.674V219.34a427.008 427.008 0 0 0 51.2 0v687.513a355.942 355.942 0 0 1-51.2 0zm486.4-175.514a96.87 96.87 0 0 1-74.957 94.822l-305.561 71.885a17.613 17.613 0 0 1-3.482 0v-686.49l13.722-2.867L972.8 122.88z"/><path d="M368.641 292.25l-237.773-55.91a25.6 25.6 0 1 0-11.673 50.38l236.748 56.115a27.853 27.853 0 0 0 5.94 0 25.6 25.6 0 0 0 6.758-50.585zm0 143.36L130.868 379.7a25.6 25.6 0 1 0-11.673 50.38l236.748 56.115a27.853 27.853 0 0 0 5.94 0 25.6 25.6 0 0 0 6.758-50.585z"/></svg>