<svg class="icon" viewBox="0 0 1026 1024" xmlns="http://www.w3.org/2000/svg" width="200.391" height="200"><defs><style/></defs><path d="M999.811 431.718H896.183a285.286 285.286 0 0 0-65.536-158.105l73.318-73.319a25.6 25.6 0 1 0-36.25-36.454l-73.318 73.318a285.286 285.286 0 0 0-158.106-65.126V68.198a25.6 25.6 0 0 0-51.2 0v103.63a284.467 284.467 0 0 0-158.105 65.74l-73.319-73.728a25.6 25.6 0 0 0-36.25 36.25l73.114 73.728a286.72 286.72 0 0 0-45.465 75.57c-9.011 0-18.227-1.228-27.443-1.228h-20.48a316.416 316.416 0 0 0 7.168 632.013h429.67a204.8 204.8 0 0 0 204.8-225.28 201.318 201.318 0 0 0-85.606-144.794 283.648 283.648 0 0 0 44.032-128.205h103.628a25.6 25.6 0 0 0 0-51.2zm-113.05 329.319a151.962 151.962 0 0 1-39.116 118.374 154.01 154.01 0 0 1-113.664 50.79H307.587a265.216 265.216 0 0 1-254.566-280.78A268.083 268.083 0 0 1 301.443 399.77h16.59a265.011 265.011 0 0 1 251.903 182.067 60.211 60.211 0 0 0 57.344 40.96h100.147a158.515 158.515 0 0 1 159.335 138.24zm-159.334-189.44H627.28a9.216 9.216 0 0 1-8.601-6.349A317.235 317.235 0 0 0 397.699 358.4a235.11 235.11 0 0 1 448.512 98.918 231.629 231.629 0 0 1-39.526 129.434 215.654 215.654 0 0 0-79.258-15.155z"/></svg>