<svg class="icon" viewBox="0 0 1024 1024" xmlns="http://www.w3.org/2000/svg" width="200" height="200"><defs><style/></defs><path d="M509.542 1023.999a25.6 25.6 0 0 1-13.312-3.687L400.59 962.56A663.142 663.142 0 0 1 80.487 397.312V188.006a25.805 25.805 0 0 1 16.18-24.166L505.855 1.843a25.6 25.6 0 0 1 19.046 0L927.54 163.84a25.6 25.6 0 0 1 15.974 23.757v207.462a662.732 662.732 0 0 1-323.174 567.5l-97.894 58.163a26.01 26.01 0 0 1-12.903 3.277zm-377.855-819.2v192.513a611.942 611.942 0 0 0 295.116 521.624l81.92 49.562 85.197-50.176A610.713 610.713 0 0 0 892.313 395.06v-190.26L515.277 53.249zM607.232 940.44z"/><path d="M486.195 650.034a26.214 26.214 0 0 1-18.227-7.372L294.708 469.4a25.6 25.6 0 0 1 36.249-36.25L486.195 588.39l247.808-248.013a25.6 25.6 0 0 1 36.25 36.25l-266.24 266.24a25.395 25.395 0 0 1-17.818 7.167z"/></svg>