<svg class="icon" viewBox="0 0 1024 1024" xmlns="http://www.w3.org/2000/svg" width="200" height="200"><defs><style/></defs><path d="M512 20.48A491.52 491.52 0 1 0 1003.52 512 491.52 491.52 0 0 0 512 20.48zm0 931.84A440.32 440.32 0 1 1 952.32 512 440.73 440.73 0 0 1 512 952.32z"/><path d="M734.822 289.178a25.6 25.6 0 0 0-36.25 0L512 475.75 325.222 288.973a25.6 25.6 0 0 0-36.25 36.25L475.75 512 288.973 698.778a25.6 25.6 0 1 0 36.25 36.25L512 548.25l186.778 186.777a25.6 25.6 0 0 0 36.25-36.25L548.25 512l186.777-186.778a25.6 25.6 0 0 0-.205-36.044z"/></svg>