<svg class="icon" viewBox="0 0 1024 1024" xmlns="http://www.w3.org/2000/svg" width="200" height="200"><defs><style/></defs><path d="M698.982 188.416v-27.034a81.92 81.92 0 0 0-81.92-81.92H84.582a81.92 81.92 0 0 0-81.92 81.92v409.6a81.92 81.92 0 0 0 81.92 81.92h5.12v110.183A107.725 107.725 0 0 0 197.222 870.4h29.287a132.915 132.915 0 0 0 250.675-38.298H634.88a132.915 132.915 0 0 0 262.758 0h16.999a107.725 107.725 0 0 0 107.52-107.52v-184.32a353.69 353.69 0 0 0-323.175-351.846zm259.072 267.469H821.862V280.576a303.104 303.104 0 0 1 136.192 175.309zM53.862 570.982v-409.6a31.13 31.13 0 0 1 30.72-30.72h532.48a31.13 31.13 0 0 1 30.72 30.72v409.6a31.13 31.13 0 0 1-30.72 30.72H84.582a31.13 31.13 0 0 1-30.72-30.72zm291.84 322.56a81.92 81.92 0 1 1 81.92-81.92 81.92 81.92 0 0 1-81.92 81.92zm419.84 0a81.92 81.92 0 1 1 81.92-81.92 81.92 81.92 0 0 1-81.92 81.92zm204.8-168.96a56.32 56.32 0 0 1-56.32 56.32h-19.046a132.915 132.915 0 0 0-258.867 0H474.93a133.12 133.12 0 0 0-262.553 30.72v7.783h-15.156a56.32 56.32 0 0 1-56.32-56.32V652.902h476.16a81.92 81.92 0 0 0 81.92-81.92V239.616a298.803 298.803 0 0 1 71.68 16.794v225.28a25.6 25.6 0 0 0 25.6 25.6H968.5a303.309 303.309 0 0 1 1.843 33.177z"/></svg>