<svg class="icon" viewBox="0 0 1024 1024" xmlns="http://www.w3.org/2000/svg" width="200" height="200"><defs><style/></defs><path d="M984.475 315.013c38.91-110.382 35.634-204.791-18.021-257.422S823.1-.98 708.826 39.364A511.978 511.978 0 0 0 39.364 708.826C-1.594 822.69 5.37 913.618 57.591 966.454a168.543 168.543 0 0 0 122.874 44.235 416.34 416.34 0 0 0 134.138-26.214 511.978 511.978 0 0 0 669.668-669.462zm-54.27-221.174c30.31 30.104 37.273 84.988 20.48 155.231A517.712 517.712 0 0 0 774.974 73.155c70.039-16.384 124.923-9.626 155.232 20.684zM512.023 51.242a460.985 460.985 0 0 1 417.364 266.229C888.428 422.938 804.67 550.728 677.698 677.903s-254.76 210.32-360.432 251.483A460.575 460.575 0 0 1 512.022 51.242zM93.84 930.206c-30.72-30.719-37.477-84.784-20.48-154.822a514.026 514.026 0 0 0 175.916 175.71c-70.448 16.384-125.332 9.42-155.436-20.888zm418.183 42.596a459.347 459.347 0 0 1-126.356-17.817 1232.843 1232.843 0 0 0 327.666-241.244 1228.747 1228.747 0 0 0 241.244-327.665 460.37 460.37 0 0 1-442.554 586.726z"/><path d="M339.998 215.485a51.198 51.198 0 1 0 102.395 0 51.198 51.198 0 1 0-102.395 0zM555.6429999999999 267.911a81.916 81.916 0 1 0 163.833 0 81.916 81.916 0 1 0-163.833 0z"/></svg>