<svg class="icon" viewBox="0 0 1024 1024" xmlns="http://www.w3.org/2000/svg" width="200" height="200"><defs><style/></defs><path d="M870.4 140.083h-55.091V71.68a66.56 66.56 0 0 0-66.56-66.56h-471.04a66.56 66.56 0 0 0-66.56 66.56v68.403H153.6A148.685 148.685 0 0 0 5.12 288.563v409.6a107.725 107.725 0 0 0 107.52 107.52h93.389V983.04a40.96 40.96 0 0 0 40.96 40.96h532.48a40.96 40.96 0 0 0 40.96-40.96V805.683h90.931a107.725 107.725 0 0 0 107.52-107.52v-409.6a148.685 148.685 0 0 0-148.48-148.48zM262.349 71.68a15.36 15.36 0 0 1 15.36-15.36h471.04a15.36 15.36 0 0 1 15.36 15.36v68.403h-501.76zm506.88 901.12h-512V706.56h512zM967.68 698.163a56.32 56.32 0 0 1-56.32 56.32h-90.931V696.32a40.96 40.96 0 0 0-40.96-40.96h-532.48a40.96 40.96 0 0 0-40.96 40.96v58.163H112.64a56.32 56.32 0 0 1-56.32-56.32v-409.6a97.485 97.485 0 0 1 97.28-97.28h716.8a97.485 97.485 0 0 1 97.28 97.28z"/><path d="M285.491 289.382h-122.88a25.6 25.6 0 0 0 0 51.2h122.88a25.6 25.6 0 0 0 0-51.2z"/></svg>