<svg class="icon" viewBox="0 0 1024 1024" xmlns="http://www.w3.org/2000/svg" width="200" height="200"><defs><style/></defs><path d="M860.16 40.96H163.84A122.88 122.88 0 0 0 40.96 163.84v696.32a122.88 122.88 0 0 0 122.88 122.88h696.32a122.88 122.88 0 0 0 122.88-122.88V163.84A122.88 122.88 0 0 0 860.16 40.96zm71.68 819.2a71.68 71.68 0 0 1-71.68 71.68H163.84a71.68 71.68 0 0 1-71.68-71.68V163.84a71.68 71.68 0 0 1 71.68-71.68h696.32a71.68 71.68 0 0 1 71.68 71.68z"/><path d="M410.829 291.635h-67.175V225.28a25.6 25.6 0 0 0-51.2 0v67.174H225.28a25.6 25.6 0 0 0 0 51.2h67.174V409.6a25.6 25.6 0 0 0 51.2 0v-66.765h67.175a25.6 25.6 0 0 0 0-51.2zm-2.663 294.093a25.6 25.6 0 0 0-36.25 0l-54.066 54.067-53.863-54.067a25.6 25.6 0 0 0-36.25 36.25l54.068 53.862-54.067 54.067a25.6 25.6 0 1 0 36.25 36.25l54.066-54.067 54.068 54.067a25.6 25.6 0 1 0 36.25-36.25l-54.068-54.067 54.067-54.067a25.6 25.6 0 0 0-.205-36.045zM798.72 291.635H613.171a25.6 25.6 0 0 0 0 51.2H798.72a25.6 25.6 0 0 0 0-51.2zm0 358.605H613.171a25.6 25.6 0 0 0 0 51.2H798.72a25.6 25.6 0 1 0 0-51.2zM675.0210000000001 583.066a30.925 30.925 0 1 0 61.85 0 30.925 30.925 0 1 0-61.85 0zM675.0210000000001 768.614a30.925 30.925 0 1 0 61.85 0 30.925 30.925 0 1 0-61.85 0z"/></svg>