<svg class="icon" viewBox="0 0 1024 1024" xmlns="http://www.w3.org/2000/svg" width="200" height="200"><defs><style/></defs><path d="M512 110.182a30.106 30.106 0 0 1 26.624 15.36L967.27 867.738a30.72 30.72 0 0 1-26.624 46.08H83.354a30.72 30.72 0 0 1-26.624-46.08l428.646-742.196A30.106 30.106 0 0 1 512 110.182m0-51.2a80.691 80.691 0 0 0-70.86 40.96L12.492 842.138a81.92 81.92 0 0 0 70.86 122.88h857.293a81.92 81.92 0 0 0 70.861-122.88L582.861 99.942A80.691 80.691 0 0 0 512 58.982z"/><path d="M512 698.368a25.6 25.6 0 0 1-25.6-25.6V368.64a25.6 25.6 0 0 1 51.2 0v305.152a25.6 25.6 0 0 1-25.6 24.576zM471.86 778.035a40.14 40.14 0 1 0 80.28 0 40.14 40.14 0 1 0-80.28 0z"/></svg>