<svg class="icon" viewBox="0 0 1024 1024" xmlns="http://www.w3.org/2000/svg" width="200" height="200"><defs><style/></defs><path d="M897.843 227.738H866.1v-51.815A107.725 107.725 0 0 0 757.76 68.403H122.88A105.267 105.267 0 0 0 18.637 173.67v633.447a148.685 148.685 0 0 0 148.48 148.48h689.766a148.685 148.685 0 0 0 148.48-148.48v-471.04a107.725 107.725 0 0 0-107.52-108.34zM122.88 119.603h634.88a56.32 56.32 0 0 1 56.32 56.32v51.61h-691.2a54.067 54.067 0 1 1 0-107.93zm734.003 784.794H167.117a97.485 97.485 0 0 1-97.28-97.28v-543.13a104.858 104.858 0 0 0 12.083 6.349h1.638a104.243 104.243 0 0 0 15.975 4.915h4.71a104.653 104.653 0 0 0 18.842 1.843h774.758a56.32 56.32 0 0 1 56.32 56.32v143.77H747.52a105.267 105.267 0 0 0 0 210.33h206.643v119.398a97.485 97.485 0 0 1-97.28 97.485zm97.28-376.013v107.93H747.52a54.067 54.067 0 0 1 0-107.93z"/></svg>