<svg class="icon" viewBox="0 0 1024 1024" xmlns="http://www.w3.org/2000/svg" width="200" height="200"><defs><style/></defs><path d="M829.03 207.053H593.92v-58.572A148.685 148.685 0 0 0 444.826 0H193.74a148.685 148.685 0 0 0-148.48 148.48V957.44a66.56 66.56 0 0 0 66.56 66.56h799.948a67.174 67.174 0 0 0 66.97-66.97V356.762A149.914 149.914 0 0 0 829.03 207.053zm0 51.2a98.714 98.714 0 0 1 98.509 98.509v409.6H593.92V258.253zM513.23 972.8H111.82a15.36 15.36 0 0 1-15.36-15.36V148.48a97.485 97.485 0 0 1 97.28-97.28h251.085a97.485 97.485 0 0 1 97.28 97.28V972.8zm398.336 0H593.92V816.947h333.619v139.879a15.77 15.77 0 0 1-15.77 15.974z"/><path d="M433.152 188.826H204.8a25.6 25.6 0 1 0 0 51.2h228.352a25.6 25.6 0 0 0 0-51.2zm0 144.998H204.8a25.6 25.6 0 1 0 0 51.2h228.352a25.6 25.6 0 1 0 0-51.2z"/></svg>