<svg class="icon" viewBox="0 0 1024 1024" xmlns="http://www.w3.org/2000/svg" width="200" height="200"><defs><style/></defs><path d="M808.14 329.728a297.78 297.78 0 0 0-592.28 0 259.072 259.072 0 0 0 43.212 514.458h49.766a25.6 25.6 0 0 0 0-51.2h-49.766a207.872 207.872 0 0 1-16.998-414.925l22.937-1.843v-22.733a245.76 245.76 0 0 1 492.749 0v22.733l22.938 1.843a207.872 207.872 0 0 1-16.999 414.925h-55.5a25.6 25.6 0 0 0 0 51.2h56.729a259.072 259.072 0 0 0 43.213-514.458z"/><path d="M684.646 636.109l-154.624-154.42a25.395 25.395 0 0 0-36.044 0L339.354 636.11a26.01 26.01 0 0 0 0 36.25 25.6 25.6 0 0 0 36.25 0L486.4 561.561v373.555a25.6 25.6 0 0 0 51.2 0V561.562l110.797 110.796a24.78 24.78 0 0 0 18.022 7.578 25.6 25.6 0 0 0 18.227-7.578 26.01 26.01 0 0 0 0-36.25z"/></svg>