<svg class="icon" viewBox="0 0 1024 1024" xmlns="http://www.w3.org/2000/svg" width="200" height="200"><defs><style/></defs><path d="M583.066 59.802A71.68 71.68 0 0 1 628.94 76.39l288.973 242.484a71.885 71.885 0 0 1 8.806 100.966L496.64 933.069a72.09 72.09 0 0 1-55.091 25.395 70.656 70.656 0 0 1-46.49-16.384L106.086 699.597A71.885 71.885 0 0 1 97.28 598.63L527.36 85.402a72.294 72.294 0 0 1 55.091-25.6m0-51.2a122.88 122.88 0 0 0-94.208 43.827L58.163 565.658a122.88 122.88 0 0 0 15.155 173.056l288.768 242.483a122.88 122.88 0 0 0 173.056-15.155l430.08-513.434a122.88 122.88 0 0 0-15.155-173.056L661.914 37.274a122.88 122.88 0 0 0-78.848-28.672z"/><path d="M700.006 599.45a26.01 26.01 0 0 1-16.384-5.94 25.6 25.6 0 0 1-3.276-36.044l132.096-157.287a25.6 25.6 0 1 1 39.116 32.973l-131.89 157.082a25.395 25.395 0 0 1-19.662 9.216zm-560.599-82.842l32.912-39.22 434.893 364.913-32.912 39.22zm782.193 498.79H637.747a25.6 25.6 0 0 1 0-51.2H921.6a25.6 25.6 0 0 1 0 51.2z"/></svg>