<svg class="icon" viewBox="0 0 1024 1024" xmlns="http://www.w3.org/2000/svg" width="200" height="200"><defs><style/></defs><path d="M880.64 20.48H143.36A122.88 122.88 0 0 0 20.48 143.36v737.28a122.88 122.88 0 0 0 122.88 122.88h737.28a122.88 122.88 0 0 0 122.88-122.88V143.36A122.88 122.88 0 0 0 880.64 20.48zm71.68 860.16a71.68 71.68 0 0 1-71.68 71.68H143.36a71.68 71.68 0 0 1-71.68-71.68V143.36a71.68 71.68 0 0 1 71.68-71.68h737.28a71.68 71.68 0 0 1 71.68 71.68z"/><path d="M720.691 260.506H303.31a25.6 25.6 0 0 0 0 51.2H486.4V737.28a25.6 25.6 0 0 0 51.2 0V311.706h183.091a25.6 25.6 0 0 0 0-51.2z"/></svg>