<svg class="icon" viewBox="0 0 1024 1024" xmlns="http://www.w3.org/2000/svg" width="200" height="200"><defs><style/></defs><path d="M901.12 68.198H122.88A122.88 122.88 0 0 0 0 191.078v491.52a122.88 122.88 0 0 0 122.88 122.88h281.6v124.519H286.72a25.6 25.6 0 0 0 0 51.2h450.56a25.6 25.6 0 0 0 0-51.2H619.52V805.478h281.6A122.88 122.88 0 0 0 1024 682.598v-491.52a122.88 122.88 0 0 0-122.88-122.88zm-332.8 862.004H455.68V805.478h112.64zM972.8 682.598a71.68 71.68 0 0 1-71.68 71.68H122.88a71.68 71.68 0 0 1-71.68-71.68v-491.52a71.68 71.68 0 0 1 71.68-71.68h778.24a71.68 71.68 0 0 1 71.68 71.68z"/></svg>