<svg class="icon" viewBox="0 0 1024 1024" xmlns="http://www.w3.org/2000/svg" width="200" height="200"><defs><style/></defs><path d="M942.08 240.64h-56.32v-80.282a87.04 87.04 0 0 0-87.04-87.04H537.6V25.6a25.6 25.6 0 0 0-51.2 0v47.718H225.28a87.04 87.04 0 0 0-87.04 87.04v80.282H81.92a25.6 25.6 0 0 0 0 51.2h56.32v583.68A148.685 148.685 0 0 0 286.72 1024h450.56a148.685 148.685 0 0 0 148.48-148.48V291.84h56.32a25.6 25.6 0 0 0 0-51.2zm-752.64-80.282a35.84 35.84 0 0 1 35.84-35.84h573.44a35.84 35.84 0 0 1 35.84 35.84v80.282H189.44zM834.56 875.52a97.485 97.485 0 0 1-97.28 97.28H286.72a97.485 97.485 0 0 1-97.28-97.28V291.84h645.12z"/><path d="M399.36 796.672a25.6 25.6 0 0 0 25.6-25.6v-286.72a25.6 25.6 0 1 0-51.2 0v286.72a25.6 25.6 0 0 0 25.6 25.6zm225.28 0a25.6 25.6 0 0 0 25.6-25.6v-286.72a25.6 25.6 0 1 0-51.2 0v286.72a25.6 25.6 0 0 0 25.6 25.6z"/></svg>