<svg class="icon" viewBox="0 0 1024 1024" xmlns="http://www.w3.org/2000/svg" width="200" height="200"><defs><style/></defs><path d="M942.08 51.2H81.92A81.92 81.92 0 0 0 0 133.12V256a81.92 81.92 0 0 0 81.92 81.92h860.16A81.92 81.92 0 0 0 1024 256V133.12a81.92 81.92 0 0 0-81.92-81.92zM972.8 256a31.13 31.13 0 0 1-30.72 30.72H81.92A31.13 31.13 0 0 1 51.2 256V133.12a31.13 31.13 0 0 1 30.72-30.72h860.16a31.13 31.13 0 0 1 30.72 30.72z"/><path d="M243.302 168.96h-122.88a25.6 25.6 0 1 0 0 51.2h122.88a25.6 25.6 0 1 0 0-51.2zM942.08 378.88H81.92A81.92 81.92 0 0 0 0 460.8v122.88a81.92 81.92 0 0 0 81.92 81.92h860.16a81.92 81.92 0 0 0 81.92-81.92V460.8a81.92 81.92 0 0 0-81.92-81.92zm30.72 204.8a31.13 31.13 0 0 1-30.72 30.72H81.92a31.13 31.13 0 0 1-30.72-30.72V460.8a31.13 31.13 0 0 1 30.72-30.72h860.16a31.13 31.13 0 0 1 30.72 30.72z"/><path d="M243.302 496.64h-122.88a25.6 25.6 0 1 0 0 51.2h122.88a25.6 25.6 0 1 0 0-51.2zM942.08 706.56H81.92A81.92 81.92 0 0 0 0 788.48v122.88a81.92 81.92 0 0 0 81.92 81.92h860.16a81.92 81.92 0 0 0 81.92-81.92V788.48a81.92 81.92 0 0 0-81.92-81.92zm30.72 204.8a31.13 31.13 0 0 1-30.72 30.72H81.92a31.13 31.13 0 0 1-30.72-30.72V788.48a31.13 31.13 0 0 1 30.72-30.72h860.16a31.13 31.13 0 0 1 30.72 30.72z"/><path d="M243.302 824.32h-122.88a25.6 25.6 0 0 0 0 51.2h122.88a25.6 25.6 0 1 0 0-51.2z"/></svg>