<svg class="icon" viewBox="0 0 1024 1024" xmlns="http://www.w3.org/2000/svg" width="200" height="200"><defs><style/></defs><path d="M983.207 102.4a146.637 146.637 0 0 0-107.724-46.49H491.687a148.07 148.07 0 0 0-147.66 138.24l-46.9 496.845a168.55 168.55 0 1 0 39.936 113.46v-2.049L381.71 338.33h578.56l-34.202 352.05a168.55 168.55 0 1 0 40.96 113.05v-1.024l57.14-589.824a146.637 146.637 0 0 0-40.96-110.182zm-814.49 814.9a117.555 117.555 0 1 1 118.17-117.351 117.555 117.555 0 0 1-118.17 117.35zM387.24 286.72l8.602-89.498a97.075 97.075 0 0 1 95.846-90.521h384.41a97.075 97.075 0 0 1 96.87 102.4l-7.577 77.619zm411.648 630.374A117.555 117.555 0 1 1 915.42 798.72a117.555 117.555 0 0 1-116.532 118.374z"/></svg>