<svg class="icon" viewBox="0 0 1024 1024" xmlns="http://www.w3.org/2000/svg" width="200" height="200"><defs><style/></defs><path d="M1009.05 343.45L774.349 63.898a63.898 63.898 0 0 0-90.112-7.988l-97.075 81.92-4.096 1.434H440.934l-4.096-1.434-97.075-81.92a63.898 63.898 0 0 0-90.112 7.988L14.951 343.45a64.102 64.102 0 0 0 7.987 90.112l131.481 110.182a15.974 15.974 0 0 1 5.735 12.288V901.12a81.92 81.92 0 0 0 81.92 81.92H782.13a81.92 81.92 0 0 0 81.92-81.92V556.032a15.974 15.974 0 0 1 5.735-12.288l131.481-110.182a64.102 64.102 0 0 0 7.783-90.112zM782.13 931.84H241.87a31.13 31.13 0 0 1-30.72-30.72V770.662H812.85V901.12a31.13 31.13 0 0 1-30.72 30.72zm186.163-537.395L836.813 504.627a66.97 66.97 0 0 0-23.962 51.405v163.84H211.15v-163.84a66.97 66.97 0 0 0-23.962-51.405L55.706 394.445a12.902 12.902 0 0 1-1.639-18.023L288.768 96.666a12.698 12.698 0 0 1 18.432-1.434l97.075 81.92 6.963 5.734 8.397 3.072h4.096l8.397 3.072h159.949l8.397-3.072h4.096l8.396-3.072 6.964-5.734 97.075-81.92a12.698 12.698 0 0 1 18.022 1.638l234.701 279.552a12.902 12.902 0 0 1-1.434 18.023z"/></svg>