<svg class="icon" viewBox="0 0 1024 1024" xmlns="http://www.w3.org/2000/svg" width="200" height="200"><defs><style/></defs><path d="M944.538 523.06a25.6 25.6 0 0 0-25.6 25.6v293.478a94.822 94.822 0 0 1-94.823 94.822H181.862a94.822 94.822 0 0 1-94.822-94.822V199.885a94.822 94.822 0 0 1 94.822-94.823h303.514a25.6 25.6 0 0 0 0-51.2H181.862A146.227 146.227 0 0 0 35.84 199.885v642.253A146.227 146.227 0 0 0 181.862 988.16h642.253a146.227 146.227 0 0 0 146.023-146.022V548.659a25.6 25.6 0 0 0-25.6-25.6z"/><path d="M986.112 51.61a25.6 25.6 0 0 0-23.552-15.77H688.742a25.6 25.6 0 0 0 0 51.2H901.12L427.418 560.333a25.6 25.6 0 1 0 36.25 36.25L936.96 122.88v212.378a25.6 25.6 0 1 0 51.2 0V61.44a25.6 25.6 0 0 0-2.048-9.83z"/></svg>