<svg class="icon" viewBox="0 0 1024 1024" xmlns="http://www.w3.org/2000/svg" width="200" height="200"><defs><style/></defs><path d="M901.12 102.4H122.88A122.88 122.88 0 0 0 0 225.28v573.44A122.88 122.88 0 0 0 122.88 921.6h778.24A122.88 122.88 0 0 0 1024 798.72V225.28A122.88 122.88 0 0 0 901.12 102.4zm-718.848 768a163.84 163.84 0 0 1 326.451 0zM972.8 798.72a71.68 71.68 0 0 1-71.68 71.68H559.923a214.835 214.835 0 0 0-428.851 0h-8.192a71.68 71.68 0 0 1-71.68-71.68V225.28a71.68 71.68 0 0 1 71.68-71.68h778.24a71.68 71.68 0 0 1 71.68 71.68z"/><path d="M345.498 237.773a189.44 189.44 0 1 0 189.44 189.44 189.44 189.44 0 0 0-189.44-189.44zm0 327.68a138.24 138.24 0 1 1 138.24-138.24 138.445 138.445 0 0 1-138.24 138.24zM865.28 424.96H668.262a25.6 25.6 0 1 0 0 51.2h197.223a25.6 25.6 0 0 0 0-51.2zm0 163.84H668.262a25.6 25.6 0 1 0 0 51.2h197.223a25.6 25.6 0 0 0 0-51.2z"/></svg>