<svg class="icon" viewBox="0 0 1024 1024" xmlns="http://www.w3.org/2000/svg" width="200" height="200"><defs><style/></defs><path d="M860.16 92.16a71.68 71.68 0 0 1 71.68 71.68v696.32a71.68 71.68 0 0 1-71.68 71.68H163.84a71.68 71.68 0 0 1-71.68-71.68V163.84a71.68 71.68 0 0 1 71.68-71.68h696.32m0-51.2H163.84A122.88 122.88 0 0 0 40.96 163.84v696.32a122.88 122.88 0 0 0 122.88 122.88h696.32a122.88 122.88 0 0 0 122.88-122.88V163.84A122.88 122.88 0 0 0 860.16 40.96z"/><path d="M425.984 298.803a29.9 29.9 0 0 1 17.613 5.94l256 182.476a30.72 30.72 0 0 1 0 49.971l-256 182.477a29.9 29.9 0 0 1-17.613 5.94 30.72 30.72 0 0 1-30.925-30.925V329.523a30.72 30.72 0 0 1 30.925-30.925m0-51.2a81.92 81.92 0 0 0-81.92 81.92v365.159a81.92 81.92 0 0 0 81.92 81.92 81.92 81.92 0 0 0 47.309-15.36l256-182.477a81.92 81.92 0 0 0 0-133.53L473.088 262.758a81.92 81.92 0 0 0-47.309-15.36z"/></svg>