<svg class="icon" viewBox="0 0 1024 1024" xmlns="http://www.w3.org/2000/svg" width="200" height="200"><defs><style/></defs><path d="M375.507 249.054a202.813 202.813 0 0 0-95.322-23.526A224.92 224.92 0 0 0 55.468 456.532l10.344 369.525a204.03 204.03 0 0 0 336.67 148.864 148.053 148.053 0 0 0 27.176-183.95 177.056 177.056 0 0 1-17.036-84.168c0-71.188 27.988-159.614 48.878-215.793a195.917 195.917 0 0 0-85.993-241.956zm-5.476 687.333a153.124 153.124 0 0 1-253.719-111.75v-13.183l253.719-36.506a175.839 175.839 0 0 0 15.211 40.562 97.35 97.35 0 0 1-15.211 120.877zm44.416-463.225c-24.135 63.684-52.529 155.558-52.529 233.438v18.05L114.69 760.345l-8.316-305.233a174.216 174.216 0 0 1 174.014-178.88 153.327 153.327 0 0 1 71.593 17.644 144.606 144.606 0 0 1 61.858 179.286zM743.815 10.141a202.813 202.813 0 0 0-95.322 23.526A195.917 195.917 0 0 0 562.5 275.42c20.282 56.179 48.878 144.605 48.878 215.793a177.056 177.056 0 0 1-17.036 84.167 147.648 147.648 0 0 0 27.177 183.951 202.813 202.813 0 0 0 336.67-148.864l10.14-369.323A224.92 224.92 0 0 0 743.815 10.141zM610.161 257.775A144.403 144.403 0 0 1 672.222 78.49a150.893 150.893 0 0 1 71.593-17.645 174.216 174.216 0 0 1 173.81 178.88l-8.517 305.234-247.838-35.695v-18.05c.812-77.475-27.582-169.755-51.109-233.438zm145.214 500.34A153.327 153.327 0 0 1 653.97 721a97.553 97.553 0 0 1-15.82-121.688 177.461 177.461 0 0 0 15.212-40.563l254.124 36.507v13.385a152.515 152.515 0 0 1-152.11 149.473z"/></svg>