<svg class="icon" viewBox="0 0 1024 1024" xmlns="http://www.w3.org/2000/svg" width="200" height="200"><defs><style/></defs><path d="M1016.156 493.676L857.897 335.417a25.796 25.796 0 1 0-36.647 36.648L935.287 486.1H537.694V88.304L651.731 202.34a25.796 25.796 0 1 0 36.647-36.442L530.118 7.638a25.796 25.796 0 0 0-36.646 0l-158.055 158.26a25.796 25.796 0 1 0 36.648 36.647L486.1 88.51V486.1H88.304L202.34 372.065a25.796 25.796 0 1 0-36.442-36.648L7.638 493.677a25.796 25.796 0 0 0 0 36.647l158.26 158.054a25.796 25.796 0 1 0 36.647-36.647L88.304 537.694H486.1v397.797L372.065 821.455a25.796 25.796 0 1 0-36.648 36.647l158.26 158.26a25.796 25.796 0 0 0 36.647 0l158.259-158.26a25.796 25.796 0 1 0-36.648-36.647L537.9 935.49V537.694H935.49L821.455 651.731a25.796 25.796 0 1 0 36.647 36.647l158.26-158.26a25.796 25.796 0 0 0-.206-36.442z"/></svg>