<svg class="icon" viewBox="0 0 1024 1024" xmlns="http://www.w3.org/2000/svg" width="200" height="200"><defs><style/></defs><path d="M623.788 1023.778a25.593 25.593 0 0 1-13.922-4.095 447.152 447.152 0 0 1-202.283-309.157 295.645 295.645 0 0 0-50.571 255.925 25.797 25.797 0 0 1-36.034 29.892 453.909 453.909 0 0 1-261.454-409.48 448.176 448.176 0 0 1 182.22-363.005A403.747 403.747 0 0 0 403.692 17.481 25.797 25.797 0 0 1 430.104.078a583.714 583.714 0 0 1 244.05 79.643A346.42 346.42 0 0 1 845.726 372.91a472.745 472.745 0 0 1-18.631 132.262 348.058 348.058 0 0 0 53.437-116.087 25.797 25.797 0 0 1 23.75-20.474 26.207 26.207 0 0 1 25.592 16.993 589.651 589.651 0 0 1 35.216 198.188v3.481a452.885 452.885 0 0 1-334.546 436.506 25.797 25.797 0 0 1-6.756 0zM428.466 623.92a25.797 25.797 0 0 1 25.797 25.387 395.148 395.148 0 0 0 173.825 320.623 401.29 401.29 0 0 0 284.384-381.84v-2.457a540.718 540.718 0 0 0-11.466-105.441 400.062 400.062 0 0 1-142.09 160.926 25.797 25.797 0 0 1-35.624-36.035 409.48 409.48 0 0 0 70.84-230.332 295.03 295.03 0 0 0-146.39-250.602A532.324 532.324 0 0 0 445.46 53.924 454.523 454.523 0 0 1 271.226 266.24a396.377 396.377 0 0 0-159.698 320.623 401.905 401.905 0 0 0 185.495 337.411c-1.228-11.26-1.638-22.521-1.638-33.577a351.948 351.948 0 0 1 115.678-260.02 25.797 25.797 0 0 1 17.403-6.756z"/></svg>