<svg class="icon" viewBox="0 0 1024 1024" xmlns="http://www.w3.org/2000/svg" width="200" height="200"><defs><style/></defs><path d="M859.812 82.861H537.574V25.574a25.574 25.574 0 1 0-51.148 0v57.287H164.188A122.757 122.757 0 0 0 41.43 205.618v450.11a122.757 122.757 0 0 0 122.757 122.758h188.841l-101.888 207.46a25.779 25.779 0 0 0 11.662 34.371 28.03 28.03 0 0 0 11.253 2.455 25.37 25.37 0 0 0 23.119-14.321l112.527-229.965h204.596l112.527 229.965a25.37 25.37 0 0 0 23.12 14.321 28.03 28.03 0 0 0 11.252-2.455 25.779 25.779 0 0 0 11.662-34.372l-101.07-207.46h188.023A122.757 122.757 0 0 0 982.57 655.729v-450.11A122.757 122.757 0 0 0 859.812 82.861zm72.632 572.867a71.813 71.813 0 0 1-72.632 72.018H164.188a71.813 71.813 0 0 1-72.632-72.018v-450.11a71.813 71.813 0 0 1 72.632-72.426h695.624a71.813 71.813 0 0 1 72.632 72.426z"/></svg>