<svg class="icon" viewBox="0 0 1024 1024" xmlns="http://www.w3.org/2000/svg" width="200" height="200"><defs><style/></defs><path d="M1013.76 584.09a230.81 230.81 0 0 0-128-206.644 373.76 373.76 0 0 0-747.315 0 230.81 230.81 0 0 0 80.077 436.43h2.048a20.48 20.48 0 0 0 20.48-20.48V374.783a20.48 20.48 0 0 0-20.48-20.48h-2.048a229.171 229.171 0 0 0-28.058 4.71 322.15 322.15 0 0 1 643.072 0 229.376 229.376 0 0 0-28.058-4.71h-2.048a20.48 20.48 0 0 0-20.48 20.48v418.611a20.48 20.48 0 0 0 20.48 20.48h2.048a229.376 229.376 0 0 0 26.01-4.096 191.283 191.283 0 0 1-188.006 158.106H517.12a25.6 25.6 0 0 0 0 51.2h126.362a242.483 242.483 0 0 0 241.664-227.738A230.81 230.81 0 0 0 1013.76 584.09zM189.85 756.326a179.814 179.814 0 0 1 0-344.678zm644.3 0V411.853a179.814 179.814 0 0 1 0 344.678z"/></svg>