<svg class="icon" viewBox="0 0 1024 1024" xmlns="http://www.w3.org/2000/svg" width="200" height="200"><defs><style/></defs><path d="M754.681 1023.992H501.146a210.734 210.734 0 0 1-150.524-61.438L89.304 699.598a111.613 111.613 0 0 1 8.397-165.065 114.89 114.89 0 0 1 151.957 10.445l75.16 75.364V200.104a97.892 97.892 0 0 1 97.687-97.687h3.481a97.892 97.892 0 0 1 97.687 97.687v100.964a97.892 97.892 0 0 1 46.898-11.878h2.867a97.892 97.892 0 0 1 92.772 66.763 97.277 97.277 0 0 1 52.223-15.155h3.481a97.687 97.687 0 0 1 97.278 77.617 96.253 96.253 0 0 1 47.922-12.697h3.481a97.892 97.892 0 0 1 97.687 97.687v307.191a212.986 212.986 0 0 1-213.6 213.396zm-588.17-462.426a58.162 58.162 0 0 0-36.453 11.878 60.414 60.414 0 0 0-4.505 89.086L386.87 925.28a159.74 159.74 0 0 0 114.275 47.513H754.68A161.583 161.583 0 0 0 916.06 811.416V504.224a46.488 46.488 0 0 0-46.489-46.489h-3.481a46.693 46.693 0 0 0-44.645 33.791v129.635a25.804 25.804 0 0 1-25.6 25.395 25.6 25.6 0 0 1-25.6-25.6V438.486a46.488 46.488 0 0 0-46.487-46.489h-3.482a46.488 46.488 0 0 0-46.488 46.489V621.16a25.6 25.6 0 0 1-25.6 25.6 26.009 26.009 0 0 1-25.599-25.804v-234.08a46.488 46.488 0 0 0-49.15-46.489h-3.482a46.488 46.488 0 0 0-46.489 46.488v234.285a25.6 25.6 0 0 1-25.599 25.6 26.009 26.009 0 0 1-25.6-25.804V200.104a46.488 46.488 0 0 0-46.283-46.488h-3.481a46.488 46.488 0 0 0-46.489 46.488V682.19a25.6 25.6 0 0 1-43.62 18.022L213.41 581.226a67.173 67.173 0 0 0-46.898-19.66z"/><path d="M276.896 304.344a25.395 25.395 0 0 1-22.323-13.107 195.579 195.579 0 1 1 366.173-95.639 192.712 192.712 0 0 1-4.096 39.321 25.6 25.6 0 1 1-50.175-10.24 137.417 137.417 0 0 0 2.867-29.08 143.356 143.356 0 1 0-270.123 70.654 25.6 25.6 0 0 1-22.323 38.091z"/></svg>