<svg class="icon" viewBox="0 0 1024 1024" xmlns="http://www.w3.org/2000/svg" width="200" height="200"><defs><style/></defs><path d="M754.073 312.936l79.257-149.094a23.962 23.962 0 0 0 1.024-2.253 68.813 68.813 0 0 0-97.075-85.401 96.46 96.46 0 0 1-120.626-20.48l-11.06-12.698A124.313 124.313 0 0 0 510.771.002a124.313 124.313 0 0 0-94.208 43.213l-16.588 20.48a83.968 83.968 0 0 1-105.062 18.022 71.68 71.68 0 0 0-102.4 89.907 12.493 12.493 0 0 0 1.024 2.458l75.98 139.673A415.538 415.538 0 0 0 67.175 669.902v208.486A145.612 145.612 0 0 0 212.583 1024h598.834a145.612 145.612 0 0 0 145.408-145.612V669.902a415.538 415.538 0 0 0-202.752-356.966zm-514.047-163.84a20.48 20.48 0 0 1 5.735-21.503 20.48 20.48 0 0 1 23.756-2.253 135.372 135.372 0 0 0 168.96-29.287l16.794-20.48a73.523 73.523 0 0 1 55.295-25.395 73.728 73.728 0 0 1 55.501 25.19l11.06 12.903a147.66 147.66 0 0 0 184.319 31.334 17.818 17.818 0 0 1 25.395 20.48l-82.33 156.877H319.694zm665.599 728.472a94.413 94.413 0 0 1-94.208 94.413H212.583a94.413 94.413 0 0 1-94.208-94.413V669.902a364.543 364.543 0 0 1 193.536-321.74h400.383a364.748 364.748 0 0 1 193.33 321.74z"/><path d="M650.65 626.075a25.6 25.6 0 1 0 0-51.2h-84.583l81.92-81.92a25.6 25.6 0 0 0-36.25-36.045L512 556.443 411.648 456.296a25.6 25.6 0 1 0-36.044 36.25l81.92 81.92H373.35a25.6 25.6 0 1 0 0 51.199H486.4v84.173H373.35a25.6 25.6 0 1 0 0 51.2H486.4V880.64a25.6 25.6 0 0 0 51.199 0V761.447h113.05a25.6 25.6 0 1 0 0-51.2H537.6v-84.172z"/></svg>