<svg class="icon" viewBox="0 0 1025 1024" xmlns="http://www.w3.org/2000/svg" width="200.195" height="200"><defs><style/></defs><path d="M1024.693 512a122.8 122.8 0 0 0-104.79-121.368A424.276 424.276 0 0 0 633.37 104.097a122.8 122.8 0 0 0-242.736 0 425.913 425.913 0 0 0-286.535 286.535 122.8 122.8 0 0 0 0 242.736 423.662 423.662 0 0 0 286.535 286.535 122.8 122.8 0 0 0 242.736 0A423.253 423.253 0 0 0 919.904 634.39 122.8 122.8 0 0 0 1024.694 512zm-393.78-354.484A373.314 373.314 0 0 1 867.509 394.11a122.8 122.8 0 0 0-85.756 92.306H674.507a163.734 163.734 0 0 0-135.9-135.9V243.271a122.8 122.8 0 0 0 92.306-85.755zM513.024 624.567A112.567 112.567 0 1 1 625.591 512a112.772 112.772 0 0 1-112.567 112.567zm0-573.07a71.634 71.634 0 1 1-71.633 71.634 71.634 71.634 0 0 1 71.633-71.633zM395.136 157.517a122.8 122.8 0 0 0 92.305 85.755v107.246a163.734 163.734 0 0 0-135.9 135.9H244.296a122.8 122.8 0 0 0-85.552-92.306 374.747 374.747 0 0 1 236.392-236.595zM52.522 512a71.634 71.634 0 1 1 71.634 71.634A71.634 71.634 0 0 1 52.522 512zm342.614 354.484A372.495 372.495 0 0 1 158.54 629.89a122.8 122.8 0 0 0 85.756-92.306H351.54a163.734 163.734 0 0 0 135.9 135.9v107.246a122.8 122.8 0 0 0-92.305 85.755zm117.888 106.018a71.634 71.634 0 1 1 71.634-71.633 71.634 71.634 0 0 1-71.634 71.633zm117.889-106.018a122.8 122.8 0 0 0-92.305-85.755V673.483a163.734 163.734 0 0 0 135.899-135.9h107.246a122.8 122.8 0 0 0 85.756 92.306 372.29 372.29 0 0 1-236.596 236.595zm270.98-282.85A71.634 71.634 0 1 1 973.527 512a71.634 71.634 0 0 1-71.634 71.634z"/></svg>