<svg class="icon" viewBox="0 0 1024 1024" xmlns="http://www.w3.org/2000/svg" width="200" height="200"><defs><style/></defs><path d="M858.112 18.022H327.68a148.07 148.07 0 0 0-147.251 147.252h-39.527a122.88 122.88 0 0 0-122.88 122.88v595.148a122.88 122.88 0 0 0 122.88 122.88h594.944a122.88 122.88 0 0 0 122.88-122.88v-39.73a148.07 148.07 0 0 0 147.456-147.252V165.888a148.07 148.07 0 0 0-148.07-147.866zm-50.586 865.28a71.68 71.68 0 0 1-71.68 71.68H140.902a71.68 71.68 0 0 1-71.68-71.68V288.154a71.68 71.68 0 0 1 71.68-71.68h594.944a71.68 71.68 0 0 1 71.68 71.68zM954.982 696.32a96.87 96.87 0 0 1-96.05 96.666V288.154a122.88 122.88 0 0 0-122.88-122.88H231.628a96.87 96.87 0 0 1 96.051-96.052h530.432a96.87 96.87 0 0 1 96.87 96.666z"/><path d="M634.88 560.128H463.872V389.12a25.6 25.6 0 0 0-51.2 0v171.213H241.459a25.6 25.6 0 0 0 0 51.2h171.213v171.213a25.6 25.6 0 0 0 51.2 0V611.328H634.88a25.6 25.6 0 0 0 0-51.2z"/></svg>