<svg class="icon" viewBox="0 0 1024 1024" xmlns="http://www.w3.org/2000/svg" width="200" height="200"><defs><style/></defs><path d="M921.6 879.002h-35.84V435.2A373.965 373.965 0 0 0 537.6 62.669V25.6a25.6 25.6 0 0 0-51.2 0v37.069A373.965 373.965 0 0 0 138.24 435.2v443.802H102.4a25.6 25.6 0 0 0 0 51.2h249.446A122.88 122.88 0 0 0 471.04 1024h81.92a122.88 122.88 0 0 0 119.194-93.798H921.6a25.6 25.6 0 0 0 0-51.2zM552.96 972.8h-81.92a71.68 71.68 0 0 1-64.717-40.96h211.354a71.68 71.68 0 0 1-64.717 40.96zM189.44 435.2a322.56 322.56 0 0 1 645.12 0v443.802H189.44z"/></svg>