<svg class="icon" viewBox="0 0 1024 1024" xmlns="http://www.w3.org/2000/svg" width="200" height="200"><defs><style/></defs><path d="M956.274 313.08L665.296 22.102a40.554 40.554 0 0 0-28.794-11.963H177.426A121.663 121.663 0 0 0 55.762 131.802v770.535A121.663 121.663 0 0 0 177.426 1024h669.148a121.663 121.663 0 0 0 121.664-121.663V341.874a40.554 40.554 0 0 0-11.964-28.794zM657.388 85.975L892.4 320.785H753.705a96.317 96.317 0 0 1-96.317-96.316zm189.186 887.332H177.426a70.97 70.97 0 0 1-70.97-70.97V131.802a70.97 70.97 0 0 1 70.97-70.97h429.269v163.637a147.213 147.213 0 0 0 147.01 147.01h163.84v530.858a70.97 70.97 0 0 1-70.97 70.97z"/><path d="M548.702 538.36a25.347 25.347 0 0 0-35.688 2.84l-102.4 119.432L309.228 541.2a25.347 25.347 0 1 0-38.527 32.85l107.47 125.515L270.7 825.08a25.347 25.347 0 1 0 38.527 32.85l101.386-119.433 102.4 119.433a25.347 25.347 0 0 0 19.263 8.921 25.347 25.347 0 0 0 20.277-41.77L445.085 699.563l107.47-125.516a25.144 25.144 0 0 0-3.853-35.688z"/></svg>