<svg class="icon" viewBox="0 0 1024 1024" xmlns="http://www.w3.org/2000/svg" width="200" height="200"><defs><style/></defs><path d="M804.454 351.642h-59.187V241.05a233.267 233.267 0 0 0-466.534 0v110.796h-59.187a122.88 122.88 0 0 0-122.88 122.88v418.816a122.88 122.88 0 0 0 122.88 122.88h584.908a122.88 122.88 0 0 0 122.88-122.88v-419.02a122.88 122.88 0 0 0-122.88-122.88zM329.933 241.05a182.067 182.067 0 0 1 364.134 0v110.796H329.933zm546.201 652.492a71.68 71.68 0 0 1-71.68 71.68H219.546a71.68 71.68 0 0 1-71.68-71.68v-419.02a71.68 71.68 0 0 1 71.68-71.68h584.908a71.68 71.68 0 0 1 71.68 71.68z"/><path d="M512 680.55a57.549 57.549 0 0 0-23.962 109.978v73.933A23.757 23.757 0 0 0 512 888.218a23.757 23.757 0 0 0 23.757-23.757v-73.728A57.549 57.549 0 0 0 512 680.55z"/></svg>