<svg class="icon" viewBox="0 0 1024 1024" xmlns="http://www.w3.org/2000/svg" width="200" height="200"><defs><style/></defs><path d="M773.12 71.68h-73.318A81.92 81.92 0 0 0 619.52 5.12h-204.8a81.92 81.92 0 0 0-80.282 66.56H261.12a148.685 148.685 0 0 0-148.48 148.48v655.36A148.685 148.685 0 0 0 261.12 1024h512A148.685 148.685 0 0 0 921.6 875.52V220.16A148.685 148.685 0 0 0 773.12 71.68zm-358.4-15.36h204.8a30.72 30.72 0 0 1 0 61.44h-204.8a30.72 30.72 0 0 1 0-61.44zm455.68 819.2a97.485 97.485 0 0 1-97.28 97.28h-512a97.485 97.485 0 0 1-97.28-97.28V220.16a97.485 97.485 0 0 1 97.28-97.28h80.282a81.92 81.92 0 0 0 73.318 46.08h204.8a81.92 81.92 0 0 0 73.318-46.08h80.282a97.485 97.485 0 0 1 97.28 97.28z"/><path d="M721.92 326.042h-409.6a25.6 25.6 0 0 0 0 51.2h409.6a25.6 25.6 0 1 0 0-51.2zm0 206.438h-409.6a25.6 25.6 0 0 0 0 51.2h409.6a25.6 25.6 0 0 0 0-51.2zm0 206.438h-409.6a25.6 25.6 0 0 0 0 51.2h409.6a25.6 25.6 0 0 0 0-51.2z"/></svg>