<svg class="icon" viewBox="0 0 1024 1024" xmlns="http://www.w3.org/2000/svg" width="200" height="200"><defs><style/></defs><path d="M997.602 486.011H961.79a448.358 448.358 0 0 0-113.574-274.008l25.99-25.989a25.58 25.58 0 1 0-36.221-36.22l-26.808 25.989A448.358 448.358 0 0 0 537.17 61.39V25.58a25.58 25.58 0 0 0-51.159 0v35.81a448.358 448.358 0 0 0-274.008 114.393l-25.989-25.99a25.58 25.58 0 1 0-36.22 36.221l25.989 25.99A448.358 448.358 0 0 0 61.39 486.01H25.58a25.58 25.58 0 0 0 0 51.16h35.81a448.358 448.358 0 0 0 114.393 274.007l-25.99 25.99a25.58 25.58 0 0 0 36.221 36.22l25.99-25.99A448.358 448.358 0 0 0 486.01 961.792v36.63a25.58 25.58 0 0 0 51.16 0v-36.63a448.358 448.358 0 0 0 274.007-113.574l25.99 25.99a25.58 25.58 0 1 0 36.22-36.221l-25.99-25.99A448.358 448.358 0 0 0 961.792 537.17h36.63a25.58 25.58 0 0 0 0-51.159zM511.59 910.631a399.04 399.04 0 1 1 399.04-399.04 399.45 399.45 0 0 1-399.04 399.04z"/><path d="M511.59 260.911a250.68 250.68 0 1 0 250.68 250.68 250.884 250.884 0 0 0-250.68-250.68zm0 450.2a199.52 199.52 0 1 1 199.521-199.52 199.725 199.725 0 0 1-199.52 199.52z"/></svg>