<svg class="icon" viewBox="0 0 1024 1024" xmlns="http://www.w3.org/2000/svg" width="200" height="200"><defs><style/></defs><path d="M670.106 1.638c-201.728 0-353.895 72.91-353.895 169.37v7.987a21.709 21.709 0 0 0 0 3.891v143.36a348.16 348.16 0 1 0 331.367 526.336h22.528c201.728.41 353.894-72.294 353.894-168.755v-512c0-97.28-152.166-170.189-353.894-170.189zM972.8 519.782c0 52.224-113.05 111.616-277.3 117.35a342.016 342.016 0 0 0-42.188-133.12h16.794c131.481 0 241.664-30.924 302.694-79.257zm0-184.32c0 55.706-124.314 117.965-302.694 117.965-17.818 0-35.636 0-52.839-2.048A348.16 348.16 0 0 0 368.64 325.837v-64.922c61.44 48.333 171.008 79.258 302.49 79.258s241.664-30.925 302.694-79.258zM670.106 53.043c178.38 0 302.694 61.44 302.694 117.965S848.486 288.973 670.106 288.973 368.64 226.713 368.64 171.008 491.52 53.043 670.106 53.043zM348.16 970.957a297.574 297.574 0 1 1 297.984-297.37 297.78 297.78 0 0 1-297.984 297.37zm323.994-169.165a343.245 343.245 0 0 0 24.166-113.46c119.398-4.095 219.136-34.2 276.07-79.257v74.752c.41 55.501-122.675 117.146-299.622 117.965z"/><path d="M251.904 603.136h236.954a24.576 24.576 0 0 0 0-49.152h-98.51v-32.973a28.877 28.877 0 0 0-57.548 0v32.973h-80.077a68.608 68.608 0 0 0 0 137.216h188.621a24.166 24.166 0 1 1 0 48.333H208.691a24.576 24.576 0 0 0 0 49.152H332.8v37.273a28.877 28.877 0 0 0 57.549 0v-37.273h49.766a73.318 73.318 0 1 0 0-146.637H251.904a20.48 20.48 0 1 1 0-38.912z"/></svg>