<svg class="icon" viewBox="0 0 1024 1024" xmlns="http://www.w3.org/2000/svg" width="200" height="200"><defs><style/></defs><path d="M472.064 611.942a307.2 307.2 0 1 0-264.806-264.806 307.2 307.2 0 0 0 264.806 264.806zM512 563.2a256.205 256.205 0 0 1-255.795-253.133h282.214a20.48 20.48 0 0 0 17.613-10.24l27.853-47.923 31.744 48.742a20.48 20.48 0 0 0 17.203 9.216h134.963A256.205 256.205 0 0 1 512 563.2zm0-512a256.41 256.41 0 0 1 251.29 207.667H655.36a10.24 10.24 0 0 1-8.602-4.71l-65.33-99.943-57.754 99.328a10.24 10.24 0 0 1-8.807 5.12H260.71A256.41 256.41 0 0 1 512 51.2zm102.4 604.16H409.6a245.76 245.76 0 0 0-245.76 245.76v81.92A40.96 40.96 0 0 0 204.8 1024h614.4a40.96 40.96 0 0 0 40.96-40.96v-81.92A245.76 245.76 0 0 0 614.4 655.36zM808.96 972.8H215.04v-71.68A194.765 194.765 0 0 1 409.6 706.56h204.8a194.765 194.765 0 0 1 194.56 194.56z"/></svg>