<svg class="icon" viewBox="0 0 1024 1024" xmlns="http://www.w3.org/2000/svg" width="200" height="200"><defs><style/></defs><path d="M389.12 891.494H177.766a45.26 45.26 0 0 1-45.26-45.26V634.88a25.6 25.6 0 0 1 51.814 0v204.8h204.8a25.6 25.6 0 0 1 0 51.2zm476.774-477.388a25.6 25.6 0 0 1-26.214-24.986v-204.8h-204.8a25.6 25.6 0 1 1 0-51.2h211.354a45.26 45.26 0 0 1 45.26 45.26v210.74a25.6 25.6 0 0 1-25.6 24.986zm-19.66-229.786zm0 707.174H634.88a25.6 25.6 0 0 1 0-51.814h204.8v-204.8a25.6 25.6 0 0 1 51.2 0v211.354a45.26 45.26 0 0 1-44.646 45.26zM158.106 414.106a25.6 25.6 0 0 1-25.6-24.986V177.766a45.26 45.26 0 0 1 45.26-45.26H389.12a25.6 25.6 0 0 1 0 51.814h-204.8v204.8a25.6 25.6 0 0 1-26.214 24.986z"/><path d="M880.64 71.68a71.68 71.68 0 0 1 71.68 71.68v737.28a71.68 71.68 0 0 1-71.68 71.68H143.36a71.68 71.68 0 0 1-71.68-71.68V143.36a71.68 71.68 0 0 1 71.68-71.68h737.28m0-51.2H143.36A122.88 122.88 0 0 0 20.48 143.36v737.28a122.88 122.88 0 0 0 122.88 122.88h737.28a122.88 122.88 0 0 0 122.88-122.88V143.36A122.88 122.88 0 0 0 880.64 20.48z"/></svg>