<svg class="icon" viewBox="0 0 1024 1024" xmlns="http://www.w3.org/2000/svg" width="200" height="200"><defs><style/></defs><path d="M336.486 711.885a26.01 26.01 0 0 1-26.01-27.034l4.916-125.952a25.805 25.805 0 0 1 7.578-17.408L809.165 55.706a122.88 122.88 0 0 1 81.92-36.455 109.158 109.158 0 0 1 81.92 31.13 107.11 107.11 0 0 1 31.13 81.92 122.88 122.88 0 0 1-36.455 81.92L480.87 699.597a25.805 25.805 0 0 1-17.408 7.577L337.51 712.09zm125.952-30.72zm-95.436-109.978l-3.482 87.86 87.04-3.687 479.642-478.618a71.27 71.27 0 0 0 20.48-47.308 54.682 54.682 0 0 0-58.573-58.573A71.27 71.27 0 0 0 844.8 91.34z"/><path d="M801.587 1004.954H171.008A150.528 150.528 0 0 1 20.48 854.426v-630.58A150.528 150.528 0 0 1 171.008 73.318h413.286a26.01 26.01 0 0 1 0 51.815H171.008a98.714 98.714 0 0 0-98.509 98.509v630.784a98.714 98.714 0 0 0 98.509 98.508h630.58a98.714 98.714 0 0 0 98.508-98.508V440.934a26.01 26.01 0 1 1 51.814 0v413.492a150.528 150.528 0 0 1-150.323 150.528z"/></svg>