<svg class="icon" viewBox="0 0 1024 1024" xmlns="http://www.w3.org/2000/svg" width="200" height="200"><defs><style/></defs><path d="M770.867 694.682l-27.443-8.397A161.178 161.178 0 0 1 634.88 575.283l-9.216-32.358a31.949 31.949 0 0 1 13.312-35.226c77.21-51.814 122.88-127.59 122.88-202.752v-47.513A256.205 256.205 0 0 0 536.781 1.229a250.675 250.675 0 0 0-275.047 249.037v54.476c0 75.162 46.08 150.938 122.88 202.752a31.949 31.949 0 0 1 13.312 35.226l-8.806 32.358a160.973 160.973 0 0 1-108.544 111.207l-28.672 8.806a213.197 213.197 0 0 0-140.083 199.885 25.6 25.6 0 0 0 25.6 26.624h85.197a125.542 125.542 0 0 0 122.88 102.4h332.8a125.133 125.133 0 0 0 122.88-102.4h85.401a25.6 25.6 0 0 0 25.6-25.6 213.606 213.606 0 0 0-141.312-201.318zM678.297 972.8H345.703a73.728 73.728 0 0 1-70.246-51.2h473.088a73.728 73.728 0 0 1-70.246 51.2zM165.07 870.4a161.382 161.382 0 0 1 102.4-125.747l27.443-8.397a211.968 211.968 0 0 0 143.36-146.227l9.011-32.563a81.92 81.92 0 0 0-33.792-91.341c-63.078-42.394-100.761-102.4-100.761-160.359v-55.5A199.68 199.68 0 0 1 378.47 102.4a197.018 197.018 0 0 1 154.01-50.176 204.8 204.8 0 0 1 179.2 204.8v47.309c0 57.958-37.683 117.965-100.762 160.358a81.92 81.92 0 0 0-33.792 91.341l9.012 32.563a211.968 211.968 0 0 0 143.36 146.227l26.214 7.988a161.587 161.587 0 0 1 104.243 126.156z"/></svg>