<svg class="icon" viewBox="0 0 1024 1024" xmlns="http://www.w3.org/2000/svg" width="200" height="200"><defs><style/></defs><path d="M921.6 972.8h-56.525V520.806a353.075 353.075 0 1 0-706.15 0V972.8H102.4a25.6 25.6 0 1 0 0 51.2h819.2a25.6 25.6 0 1 0 0-51.2zM210.125 520.806a301.875 301.875 0 1 1 603.75 0V972.8h-603.75zM512 112.64a25.6 25.6 0 0 0 25.6-25.6V25.6a25.6 25.6 0 0 0-51.2 0v61.44a25.6 25.6 0 0 0 25.6 25.6zm486.195 373.555h-61.44a25.6 25.6 0 0 0 0 51.2h61.44a25.6 25.6 0 0 0 0-51.2zM112.845 512a25.6 25.6 0 0 0-25.6-25.6h-61.44a25.6 25.6 0 0 0 0 51.2h61.44a25.6 25.6 0 0 0 25.6-25.6zm699.597-275.046a25.395 25.395 0 0 0 18.022-7.373l43.418-43.418a25.6 25.6 0 0 0-36.25-36.25l-43.418 43.418a25.6 25.6 0 0 0 0 36.25 26.214 26.214 0 0 0 18.228 7.373zm-618.906-7.373a25.395 25.395 0 0 0 18.022 7.373 26.214 26.214 0 0 0 18.228-7.373 25.6 25.6 0 0 0 0-36.25l-43.418-43.417a25.6 25.6 0 0 0-36.25 36.25z"/><path d="M512 720.896a25.6 25.6 0 0 0 25.6-24.576V384.41a25.6 25.6 0 1 0-51.2 0v311.91a25.6 25.6 0 0 0 25.6 24.576zM471.04 802.816a40.96 40.96 0 1 0 81.92 0 40.96 40.96 0 1 0-81.92 0z"/></svg>