<svg class="icon" viewBox="0 0 1024 1024" xmlns="http://www.w3.org/2000/svg" width="200" height="200"><defs><style/></defs><path d="M73.933 339.354a25.6 25.6 0 0 0 15.36 5.12h3.481l191.079-26.83a25.6 25.6 0 1 0-6.963-51.404l-124.724 17.408A424.96 424.96 0 0 1 935.731 512a25.6 25.6 0 1 0 51.2 0 475.955 475.955 0 0 0-880.64-252.109L88.064 124.314a25.6 25.6 0 0 0-50.79 7.168L64.102 322.56a25.6 25.6 0 0 0 9.83 16.794zm876.134 345.292a25.6 25.6 0 0 0-19.046-4.915L740.147 706.56a25.6 25.6 0 0 0 6.963 51.2l124.724-17.408A424.96 424.96 0 0 1 88.269 512a25.6 25.6 0 0 0-51.2 0 475.955 475.955 0 0 0 880.64 252.109l19.046 135.577a25.6 25.6 0 0 0 24.576 21.914h3.482a25.6 25.6 0 0 0 21.913-28.877l-26.828-191.078a25.6 25.6 0 0 0-9.83-16.999z"/></svg>