<svg class="icon" viewBox="0 0 1024 1024" xmlns="http://www.w3.org/2000/svg" width="200" height="200"><defs><style/></defs><path d="M802.551 593.886l43.613-52.827a25.595 25.595 0 0 0-39.518-32.762l-33.785 40.952-33.17-49.551c16.994-20.476 33.785-39.314 49.756-58.766C981.1 209.965 1042.117 70.525 975.98 15.855S784.532 47.593 592.879 279.788c-15.97 19.452-32.147 39.518-48.118 59.994l-54.875-23.138 33.785-40.951a25.595 25.595 0 1 0-39.518-32.762l-43.818 52.828-238.338-100.331a149.064 149.064 0 0 0-173.84 42.794 25.595 25.595 0 0 0 6.143 38.085l381.054 236.905c-35.627 50.78-69.003 100.945-97.874 147.425-11.671 18.838-21.704 35.833-31.123 51.804l-160.325-42.59a33.17 33.17 0 0 0-38.495 9.419l-5.528 6.962a8.395 8.395 0 0 0 2.047 12.285l157.869 98.08c-37.676 81.902-29.28 108.52-11.672 122.854a38.7 38.7 0 0 0 25.8 9.419c18.838 0 47.094-11.057 92.755-44.023l126.13 136.368a8.395 8.395 0 0 0 12.491 0l5.733-6.757a33.17 33.17 0 0 0 2.048-39.723l-70.437-150.701q20.476-17.61 43.409-39.109c40.951-37.061 83.131-79.446 126.13-124.083l304.475 328.84a25.595 25.595 0 0 0 18.838 8.19 25.595 25.595 0 0 0 19.042-9.213 150.906 150.906 0 0 0 9.01-178.754zM90.404 250.712a97.874 97.874 0 0 1 91.731-7.985L512 381.552c-22.728 29.485-45.047 59.585-66.751 89.684zm175.887 624.716c10.033-67.365 172.61-328.636 365.902-562.879S902.678 52.302 930.525 52.302a20.476 20.476 0 0 1 12.695 3.276c2.457 2.048 55.898 52.009-193.292 354.026-193.496 234.038-419.343 443.3-483.637 465.824zm646.83 54.26L629.325 622.553c25.39-27.028 50.575-54.67 75.351-81.903l199.024 297.718a99.307 99.307 0 0 1 9.42 91.322z"/></svg>