<svg class="icon" viewBox="0 0 1024 1024" xmlns="http://www.w3.org/2000/svg" width="200" height="200"><defs><style/></defs><path d="M917.914 288.358L560.742 16.794a81.92 81.92 0 0 0-99.328 0L105.882 288.358a83.558 83.558 0 0 0-32.973 66.356V901.12A122.88 122.88 0 0 0 195.789 1024h632.217a122.88 122.88 0 0 0 122.88-122.88V354.918a83.558 83.558 0 0 0-32.972-66.56zM593.92 972.8H430.08V681.165a15.565 15.565 0 0 1 15.36-15.36h131.277a15.565 15.565 0 0 1 15.36 15.36zm307.2-71.68a71.68 71.68 0 0 1-71.68 71.68H645.12V681.165a66.56 66.56 0 0 0-67.38-66.765H446.26a66.56 66.56 0 0 0-66.56 66.56V972.8H195.38a71.68 71.68 0 0 1-71.066-71.68V354.714a32.563 32.563 0 0 1 12.697-25.805l355.533-271.36a30.72 30.72 0 0 1 37.274 0l357.17 271.36a32.563 32.563 0 0 1 12.903 25.805z"/></svg>