<svg class="icon" viewBox="0 0 1024 1024" xmlns="http://www.w3.org/2000/svg" width="200" height="200"><defs><style/></defs><path d="M642.662 102.4h184.32a97.485 97.485 0 0 1 97.28 97.28V384a25.6 25.6 0 0 0 51.2 0V199.68A148.685 148.685 0 0 0 826.982 51.2h-184.32a25.6 25.6 0 0 0 0 51.2zM69.222 409.6a25.6 25.6 0 0 0 25.6-25.6V199.68a97.485 97.485 0 0 1 97.28-97.28h184.32a25.6 25.6 0 0 0 0-51.2h-184.32a148.685 148.685 0 0 0-148.48 148.48V384a25.6 25.6 0 0 0 25.6 25.6zm880.64 215.04a25.6 25.6 0 0 0-25.6 25.6v184.32a97.485 97.485 0 0 1-97.28 97.28h-184.32a25.6 25.6 0 0 0 0 51.2h184.32a148.685 148.685 0 0 0 148.48-148.48V650.24a25.6 25.6 0 0 0-25.6-25.6zm-573.44 307.2h-184.32a97.485 97.485 0 0 1-97.28-97.28V650.24a25.6 25.6 0 0 0-51.2 0v184.32a148.685 148.685 0 0 0 148.48 148.48h184.32a25.6 25.6 0 0 0 0-51.2zm583.68-440.32H58.982a25.6 25.6 0 0 0 0 51.2h901.12a25.6 25.6 0 0 0 0-51.2z"/></svg>