<svg class="icon" viewBox="0 0 1024 1024" xmlns="http://www.w3.org/2000/svg" width="200" height="200"><defs><style/></defs><path d="M812.463 1000.243a26.01 26.01 0 0 1-12.083-3.072L512.022 845.62 223.663 997.171a25.805 25.805 0 0 1-37.478-27.238l55.091-321.127L7.804 421.274a25.805 25.805 0 0 1 14.336-44.032l322.56-46.9 143.36-292.25a25.805 25.805 0 0 1 46.285 0l143.36 292.25 322.56 46.9a25.805 25.805 0 0 1 14.336 44.032L782.972 648.806l55.091 321.127a25.805 25.805 0 0 1-25.395 30.31zM512.022 790.528a25.805 25.805 0 0 1 12.083 3.072l254.157 133.53-48.743-283.034a25.805 25.805 0 0 1 7.783-22.733l204.8-200.294-284.058-40.96a26.01 26.01 0 0 1-20.48-14.131L512.022 108.134 385.046 365.568a26.01 26.01 0 0 1-20.48 14.131L81.942 420.864l204.8 200.294a25.805 25.805 0 0 1 7.373 22.938L245.782 927.13 499.939 793.6a25.805 25.805 0 0 1 12.083-3.072z"/></svg>