<svg class="icon" viewBox="0 0 1024 1024" xmlns="http://www.w3.org/2000/svg" width="200" height="200"><defs><style/></defs><path d="M870.4 117.76H153.6A148.685 148.685 0 0 0 5.12 266.24v122.88a25.6 25.6 0 0 0 51.2 0V266.24a97.485 97.485 0 0 1 97.28-97.28h716.8a97.485 97.485 0 0 1 97.28 97.28v122.88a25.6 25.6 0 0 0 51.2 0V266.24A148.685 148.685 0 0 0 870.4 117.76zm122.88 491.52a25.6 25.6 0 0 0-25.6 25.6v122.88a97.485 97.485 0 0 1-97.28 97.28H153.6a97.485 97.485 0 0 1-97.28-97.28V634.88a25.6 25.6 0 0 0-51.2 0v122.88A148.685 148.685 0 0 0 153.6 906.24h716.8a148.685 148.685 0 0 0 148.48-148.48V634.88a25.6 25.6 0 0 0-25.6-25.6z"/><path d="M271.36 655.36V368.64a25.6 25.6 0 0 0-51.2 0v286.72a25.6 25.6 0 0 0 51.2 0zm266.24 0V368.64a25.6 25.6 0 0 0-51.2 0v286.72a25.6 25.6 0 0 0 51.2 0zm266.24 0V368.64a25.6 25.6 0 0 0-51.2 0v286.72a25.6 25.6 0 0 0 51.2 0z"/></svg>