<svg class="icon" viewBox="0 0 1024 1024" xmlns="http://www.w3.org/2000/svg" width="200" height="200"><defs><style/></defs><path d="M196.61 55.501l158.106 158.105L299.42 342.63a51.2 51.2 0 0 0 10.854 56.32l314.981 314.98a51.2 51.2 0 0 0 56.32 10.855L810.6 669.49l158.105 158.106-182.886 130.662a78.643 78.643 0 0 1-102.4-8.397L74.345 339.763a78.438 78.438 0 0 1-8.397-102.4L196.406 55.5m-.82-55.5a43.213 43.213 0 0 0-35.43 18.227L24.17 208.69a129.843 129.843 0 0 0 13.927 167.321l609.892 609.892a129.843 129.843 0 0 0 167.321 13.927l190.464-135.987a43.213 43.213 0 0 0 5.53-65.126L842.956 630.373a43.213 43.213 0 0 0-47.718-9.216L661.505 678.5 346.319 362.495l57.344-133.734a43.213 43.213 0 0 0-9.216-47.718L225.282 12.698A43.008 43.008 0 0 0 195.586 0z"/></svg>