<svg class="icon" viewBox="0 0 1024 1024" xmlns="http://www.w3.org/2000/svg" width="200" height="200"><defs><style/></defs><path d="M955.182 255.997a8.806 8.806 0 0 0-1.844-2.048 14.131 14.131 0 0 0-2.252-2.663 23.142 23.142 0 0 0-9.011-5.53L524.083 3.483a25.395 25.395 0 0 0-25.6 0L85.612 243.299a24.985 24.985 0 0 0-19.456 28.672l-1.229 482.503a25.19 25.19 0 0 0 12.698 22.323l422.292 243.709a25.19 25.19 0 0 0 25.6 0l419.63-243.71a26.01 26.01 0 0 0 12.697-22.118l1.229-485.165a23.757 23.757 0 0 0-3.891-13.516zM512 55.09l368.635 213.603L512 482.503 143.365 268.899zM117.355 312.93L485.991 525.92v427.822L116.127 739.933zM537.6 954.355V527.558l370.273-215.242-1.228 427.617z"/></svg>