<svg class="icon" viewBox="0 0 1024 1024" xmlns="http://www.w3.org/2000/svg" width="200" height="200"><defs><style/></defs><path d="M515.482 933.274H66.56V90.726h448.922a25.6 25.6 0 0 0 0-51.2H40.96a25.6 25.6 0 0 0-25.6 25.6v893.748a25.6 25.6 0 0 0 25.6 25.6h474.522a25.6 25.6 0 1 0 0-51.2z"/><path d="M1001.062 493.978l-270.745-270.95a25.6 25.6 0 0 0-36.25 36.249L921.6 486.4H222.003a25.6 25.6 0 0 0 0 51.2H921.6L694.067 764.723a25.805 25.805 0 0 0 18.023 43.827 26.42 26.42 0 0 0 18.227-7.577l270.745-270.95a25.395 25.395 0 0 0 0-36.045z"/></svg>