<svg class="icon" viewBox="0 0 1024 1024" xmlns="http://www.w3.org/2000/svg" width="200" height="200"><defs><style/></defs><path d="M512 71.68A440.32 440.32 0 1 1 71.68 512 440.73 440.73 0 0 1 512 71.68m0-51.2A491.52 491.52 0 1 0 1003.52 512 491.52 491.52 0 0 0 512 20.48z"/><path d="M471.245 780.493a40.755 40.755 0 1 0 81.51 0 40.755 40.755 0 1 0-81.51 0zM577.126 567.706a48.128 48.128 0 0 0-31.539 44.85v52.84a33.587 33.587 0 1 1-66.97 0v-53.044a115.302 115.302 0 0 1 74.343-107.52 121.242 121.242 0 0 0-68.403-232.038 120.218 120.218 0 0 0-91.955 91.955 123.904 123.904 0 0 0 1.843 59.187 33.587 33.587 0 0 1-64.512 18.022 190.26 190.26 0 0 1-2.253-90.93 188.211 188.211 0 1 1 249.446 216.678z"/></svg>