<svg class="icon" viewBox="0 0 1024 1024" xmlns="http://www.w3.org/2000/svg" width="200" height="200"><defs><style/></defs><path d="M842.342 874.906H181.658a25.6 25.6 0 0 1-25.19-20.48L40.96 272.794a25.6 25.6 0 0 1 40.96-25.805l229.376 166.297 177.971-262.348a25.19 25.19 0 0 1 20.48-11.06 25.395 25.395 0 0 1 20.48 11.06l180.02 263.372L942.08 246.99a25.6 25.6 0 0 1 40.96 25.805L867.942 854.426a25.6 25.6 0 0 1-25.6 20.48zm-639.59-51.2h618.496l98.509-496.026-199.475 143.36a25.19 25.19 0 0 1-20.48 4.506 26.01 26.01 0 0 1-16.794-10.855L510.362 210.944 338.739 463.872a25.6 25.6 0 0 1-36.25 6.349L104.244 327.68zm639.59 174.08H181.658a25.6 25.6 0 1 1 0-51.2h660.684a25.6 25.6 0 0 1 0 51.2zM481.28 56.934a30.72 30.72 0 1 0 61.44 0 30.72 30.72 0 1 0-61.44 0zM0 159.334a30.72 30.72 0 1 0 61.44 0 30.72 30.72 0 1 0-61.44 0zM962.56 159.334a30.72 30.72 0 1 0 61.44 0 30.72 30.72 0 1 0-61.44 0z"/></svg>