<svg class="icon" viewBox="0 0 1024 1024" xmlns="http://www.w3.org/2000/svg" width="200" height="200"><defs><style/></defs><path d="M512 327.68A184.32 184.32 0 1 0 696.32 512 184.32 184.32 0 0 0 512 327.68zm0 317.44A133.12 133.12 0 1 1 645.12 512 133.325 133.325 0 0 1 512 645.12z"/><path d="M460.8 512a51.2 51.2 0 1 0 102.4 0 51.2 51.2 0 1 0-102.4 0z"/><path d="M995.942 486.4h-55.09A430.08 430.08 0 0 0 537.6 83.149V28.262a25.6 25.6 0 1 0-51.2 0V83.15A430.08 430.08 0 0 0 83.149 486.4H28.262a25.6 25.6 0 1 0 0 51.2H83.15A430.08 430.08 0 0 0 486.4 940.851v55.091a25.6 25.6 0 0 0 51.2 0v-55.09A430.08 430.08 0 0 0 940.851 537.6h55.091a25.6 25.6 0 0 0 0-51.2zM537.6 889.651v-37.069a25.6 25.6 0 1 0-51.2 0v37.07A379.085 379.085 0 0 1 134.349 537.6h37.273a25.6 25.6 0 1 0 0-51.2H134.35A379.085 379.085 0 0 1 486.4 134.349v37.273a25.6 25.6 0 1 0 51.2 0V134.35A379.085 379.085 0 0 1 889.651 486.4h-37.069a25.6 25.6 0 1 0 0 51.2h37.07A379.085 379.085 0 0 1 537.6 889.651z"/></svg>