<svg class="icon" viewBox="0 0 1024 1024" xmlns="http://www.w3.org/2000/svg" width="200" height="200"><defs><style/></defs><path d="M860.16 40.96H163.84A122.88 122.88 0 0 0 40.96 163.84v696.32a122.88 122.88 0 0 0 122.88 122.88h696.32a122.88 122.88 0 0 0 122.88-122.88V163.84A122.88 122.88 0 0 0 860.16 40.96zm-696.32 51.2h696.32a71.68 71.68 0 0 1 71.68 71.68v547.43l-204.8-204.8a25.6 25.6 0 0 0-36.25 0L536.166 661.094 313.754 439.091a25.6 25.6 0 0 0-36.25 0L92.16 624.64v-460.8a71.68 71.68 0 0 1 71.68-71.68zm696.32 839.68H163.84a71.68 71.68 0 0 1-71.68-71.68V696.32l203.571-203.571 222.413 222.617a25.6 25.6 0 0 0 36.25 0l154.624-154.624L931.84 783.77v76.39a71.68 71.68 0 0 1-71.68 71.68z"/><path d="M720.691 412.262a124.109 124.109 0 1 0-124.109-124.108 124.314 124.314 0 0 0 124.11 124.108zm0-197.017a72.909 72.909 0 1 1-72.909 72.909 73.114 73.114 0 0 1 72.91-73.114z"/></svg>