<svg class="icon" viewBox="0 0 1024 1024" xmlns="http://www.w3.org/2000/svg" width="200" height="200"><defs><style/></defs><path d="M984.474 253.338L831.488 69.018a81.92 81.92 0 0 0-62.874-28.058H255.386a81.92 81.92 0 0 0-62.874 28.672L39.526 253.952a81.92 81.92 0 0 0-19.046 51.814V860.16a122.88 122.88 0 0 0 122.88 122.88h737.28a122.88 122.88 0 0 0 122.88-122.88V305.766a81.92 81.92 0 0 0-19.046-52.428zM231.834 102.4a30.72 30.72 0 0 1 23.552-11.06h513.228a30.72 30.72 0 0 1 23.552 11.06l143.36 171.827H88.678zm334.028 223.027V932.66H458.138V325.427zM71.68 860.16V325.427h335.258V932.66H143.36a71.68 71.68 0 0 1-71.68-72.499zm808.96 72.5H617.062V325.426H952.32V860.16a71.68 71.68 0 0 1-71.68 72.5z"/><path d="M858.112 816.947h-78.643a25.6 25.6 0 0 0 0 51.2h78.643a25.6 25.6 0 1 0 0-51.2z"/></svg>