<svg class="icon" viewBox="0 0 1024 1024" xmlns="http://www.w3.org/2000/svg" width="200" height="200"><defs><style/></defs><path d="M1009.663 888.216l-56.115-532.479a122.88 122.88 0 0 0-122.88-109.977H742.4v-22.528A219.545 219.545 0 0 0 523.06 3.892h-22.12a219.545 219.545 0 0 0-219.34 219.34v22.528h-89.087a122.88 122.88 0 0 0-122.88 109.977L14.337 888.216a122.88 122.88 0 0 0 122.88 135.782h750.386a122.88 122.88 0 0 0 122.06-135.782zM332.8 223.232a168.345 168.345 0 0 1 168.14-168.14h22.12a168.345 168.345 0 0 1 168.14 168.14v22.528H332.8zm608.05 725.81a70.86 70.86 0 0 1-53.247 23.756H136.397a71.68 71.68 0 0 1-71.27-79.257l56.115-532.48a71.475 71.475 0 0 1 71.27-64.102H281.6v89.908a40.96 40.96 0 1 0 51.2 3.071V296.96h358.4v92.16a40.96 40.96 0 1 0 51.2-3.072V296.96h89.087a71.475 71.475 0 0 1 71.27 64.103l56.116 532.479a70.86 70.86 0 0 1-18.023 55.5z"/></svg>