<svg class="icon" viewBox="0 0 1024 1024" xmlns="http://www.w3.org/2000/svg" width="200" height="200"><defs><style/></defs><path d="M511.974 1024H207.452a59.389 59.389 0 0 1-59.39-59.389v-92.565A511.974 511.974 0 1 1 511.975 1024zm0-972.751a460.777 460.777 0 0 0-320.496 791.717 25.803 25.803 0 0 1 7.782 18.431v102.395a8.396 8.396 0 0 0 8.192 8.191h304.522a460.777 460.777 0 0 0 0-921.553z"/><path d="M348.495 433.654l1.485.692q23.2 10.819 12.382 34.02l-40.937 87.79q-10.818 23.2-34.019 12.381l-1.485-.692q-23.2-10.819-12.381-34.02l40.937-87.79q10.818-23.2 34.019-12.38zM542.486 433.693l1.485.693q23.2 10.818 12.382 34.019l-40.937 87.79q-10.819 23.2-34.02 12.381l-1.484-.692q-23.2-10.818-12.382-34.019l40.937-87.79q10.819-23.2 34.02-12.382zM736.474 433.54200000000003l1.485.692q23.2 10.818 12.381 34.019l-40.937 87.79q-10.818 23.2-34.018 12.381l-1.485-.692q-23.2-10.818-12.382-34.019l40.937-87.79q10.819-23.2 34.019-12.381z"/></svg>