<svg class="icon" viewBox="0 0 1024 1024" xmlns="http://www.w3.org/2000/svg" width="200" height="200"><defs><style/></defs><path d="M901.12 203.162h-75.162a66.355 66.355 0 0 0-4.71-88.474l-79.872-79.872a66.56 66.56 0 0 0-94.208 0L512 170.189 376.627 34.816a66.56 66.56 0 0 0-94.208 0l-79.667 79.872a66.355 66.355 0 0 0-4.71 88.474H122.88A122.88 122.88 0 0 0 0 326.042 122.88 122.88 0 0 0 75.98 439.5V860.16a148.685 148.685 0 0 0 149.3 148.48h573.44a148.685 148.685 0 0 0 149.3-148.48V439.5A122.88 122.88 0 0 0 1024 326.043a122.88 122.88 0 0 0-122.88-122.88zM683.622 71.066a15.565 15.565 0 0 1 21.71 0l79.871 79.872a15.565 15.565 0 0 1 0 21.708l-30.72 30.516H551.526zM455.68 397.722v-143.36h112.64v143.36zm112.64 51.2V957.44H455.68V448.922zM239.002 172.646a15.565 15.565 0 0 1 0-21.708l79.872-79.872a15.565 15.565 0 0 1 21.708 0l132.096 132.096H269.517zM51.2 326.042a71.68 71.68 0 0 1 71.68-71.68h281.6v143.36h-281.6a71.68 71.68 0 0 1-71.68-71.68zm75.98 534.118V448.922h277.3V957.44h-179.2a97.485 97.485 0 0 1-98.1-97.28zm671.54 97.28h-179.2V448.922h277.3V860.16a97.485 97.485 0 0 1-98.1 97.28zm102.4-559.718h-281.6v-143.36h281.6a71.68 71.68 0 1 1 0 143.36z"/></svg>