<svg class="icon" viewBox="0 0 1024 1024" xmlns="http://www.w3.org/2000/svg" width="200" height="200"><defs><style/></defs><path d="M485.58 1023.997a26.01 26.01 0 0 1-26.009-25.805V402.431a24.986 24.986 0 0 1 3.277-13.312l188.825-337.92H70.248l188.825 337.92a27.238 27.238 0 0 1 3.277 12.697v464.28a26.01 26.01 0 0 1-51.815 0V409.6L3.483 38.502a25.805 25.805 0 0 1 .205-25.804A26.214 26.214 0 0 1 26.011 0H696.32a26.214 26.214 0 0 1 22.324 12.698 26.42 26.42 0 0 1 0 25.804L512 409.6v588.593a26.01 26.01 0 0 1-26.42 25.805z"/><path d="M997.989 459.16H644.096a26.01 26.01 0 1 1 0-51.814h353.893a26.01 26.01 0 0 1 0 51.814zm0 165.683H644.096a26.01 26.01 0 1 1 0-51.814h353.893a26.01 26.01 0 0 1 0 51.814zm0 165.682H644.096a25.805 25.805 0 1 1 0-51.609h353.893a25.805 25.805 0 1 1 0 51.61z"/></svg>