<svg class="icon" viewBox="0 0 1024 1024" xmlns="http://www.w3.org/2000/svg" width="200" height="200"><defs><style/></defs><path d="M880.64 30.72H143.36A122.88 122.88 0 0 0 20.48 153.6v498.688a40.96 40.96 0 0 0 12.083 28.877l320.512 320.512a40.96 40.96 0 0 0 28.877 12.083H880.64a122.88 122.88 0 0 0 122.88-122.88V153.6A122.88 122.88 0 0 0 880.64 30.72zM89.293 665.6H271.36a97.28 97.28 0 0 1 97.28 97.28v182.067zM952.32 890.88a71.68 71.68 0 0 1-71.68 71.68h-460.8V762.88A148.685 148.685 0 0 0 271.36 614.4H71.68V153.6a71.68 71.68 0 0 1 71.68-71.68h737.28a71.68 71.68 0 0 1 71.68 71.68z"/><path d="M819.2 353.28H680.96V215.04a25.6 25.6 0 0 0-51.2 0v138.24H491.52a25.6 25.6 0 0 0 0 51.2h138.24v138.24a25.6 25.6 0 0 0 51.2 0V404.48H819.2a25.6 25.6 0 0 0 0-51.2z"/></svg>