<svg class="icon" viewBox="0 0 1024 1024" xmlns="http://www.w3.org/2000/svg" width="200" height="200"><defs><style/></defs><path d="M820.975 84.973l-116.3-67.16A132.272 132.272 0 0 0 638.333 0a136.162 136.162 0 0 0-117.94 68.593L143.443 722.989a45.865 45.865 0 0 0-4.3 36.241l40.95 233.216a44.227 44.227 0 0 0 41.361 31.328 40.95 40.95 0 0 0 8.6 0l231.168-77.398a45.25 45.25 0 0 0 30.304-22.728l377.567-653.781a135.138 135.138 0 0 0-48.117-184.894zm-593.789 884.95l-36.241-207.007 240.382 138.005zm240.177-106.677L207.325 713.16l307.132-530.725 260.039 150.29zm357.502-618.974l-26.208 44.023-259.425-150.086 25.39-44.022a85.587 85.587 0 0 1 73.712-42.998 81.902 81.902 0 0 1 40.95 10.852l116.301 67.16a84.359 84.359 0 0 1 29.28 115.071zm100.944 779.502H639.153a25.594 25.594 0 0 1 0-51.19h286.656a25.594 25.594 0 1 1 0 51.19z"/></svg>