<svg class="icon" viewBox="0 0 1024 1024" xmlns="http://www.w3.org/2000/svg" width="200" height="200"><defs><style/></defs><path d="M987.955 925.696H943.31V381.133a67.38 67.38 0 0 0-67.175-67.175h-81.92a67.38 67.38 0 0 0-67.174 67.175v544.563H620.544v-374.58a67.38 67.38 0 0 0-67.584-67.174h-81.92a67.38 67.38 0 0 0-67.174 67.175v374.579H297.779v-210.33a67.38 67.38 0 0 0-67.174-67.174h-81.92a67.38 67.38 0 0 0-67.175 67.174v210.33H36.045a25.805 25.805 0 0 0 0 51.814h951.91a25.805 25.805 0 1 0 0-51.814zM778.24 381.133a15.565 15.565 0 0 1 15.565-15.565h81.92a15.565 15.565 0 0 1 15.565 15.565v544.563H778.24zM455.475 551.117a15.565 15.565 0 0 1 15.565-15.565h81.92a15.565 15.565 0 0 1 15.565 15.565v374.579h-113.46zM132.71 714.957a15.565 15.565 0 0 1 15.565-15.565h81.92a15.565 15.565 0 0 1 15.565 15.565v210.739H132.3zM55.091 512a25.6 25.6 0 0 0 10.855-2.458l768-357.17 27.443 58.982L968.909 61.44l-184.32-14.336 27.443 58.982-768 357.581A25.805 25.805 0 0 0 55.092 512z"/></svg>