<svg class="icon" viewBox="0 0 1024 1024" xmlns="http://www.w3.org/2000/svg" width="200" height="200"><defs><style/></defs><path d="M512 0v51.186a346.017 346.017 0 0 1 261.253 118.137 378.776 378.776 0 0 1 92.954 295.036c-28.665 250.81-243.85 434.67-334.961 501.826a31.735 31.735 0 0 1-37.673 0c-102.372-75.14-338.236-279.884-338.236-558.13a357.892 357.892 0 0 1 354.206-356.87H512V0h-3.071A408.259 408.259 0 0 0 104.15 408.259c0 301.383 250.401 519.025 358.915 599.285a81.897 81.897 0 0 0 98.482 0c101.143-74.732 324.723-268.215 355.435-536.634C945.238 223.99 759.535 0 512 0z"/><path d="M325.274 391.265A187.136 187.136 0 1 0 512 204.744a187.136 187.136 0 0 0-186.726 186.521zM512 255.315a135.95 135.95 0 1 1-135.95 135.95A136.155 136.155 0 0 1 512 255.315z"/></svg>