<svg class="icon" viewBox="0 0 1025 1024" xmlns="http://www.w3.org/2000/svg" width="200.195" height="200"><defs><style/></defs><path d="M778.917 423.117a286.72 286.72 0 1 0-532.48 0 286.72 286.72 0 1 0 266.24 460.39 286.72 286.72 0 1 0 266.24-460.39zm-256 283.443a237.773 237.773 0 0 1-10.24 68.608 234.906 234.906 0 0 1 0-137.216 237.773 237.773 0 0 1 10.24 68.608zm-10.24-624.64a235.725 235.725 0 0 1 235.52 235.52 231.834 231.834 0 0 1-24.167 102.4 286.72 286.72 0 0 0-211.353 109.773 286.72 286.72 0 0 0-211.354-109.159 231.834 231.834 0 0 1-24.166-102.4A235.725 235.725 0 0 1 512.677 81.92zm172.441 395.264a234.906 234.906 0 0 1-119.603 69.632 234.906 234.906 0 0 1 119.603-69.632zm-225.28 69.632a234.906 234.906 0 0 1-119.603-69.632 234.906 234.906 0 0 1 119.603 69.632zM287.397 942.08a235.315 235.315 0 0 1-15.975-471.04 286.72 286.72 0 0 0 200.295 129.843 285.491 285.491 0 0 0 11.468 236.544A234.906 234.906 0 0 1 287.397 942.08zm450.56 0a234.906 234.906 0 0 1-195.584-104.653 285.491 285.491 0 0 0 11.264-236.544A286.72 286.72 0 0 0 753.93 471.04a235.315 235.315 0 0 1-15.974 471.04z"/></svg>