<svg class="icon" viewBox="0 0 1024 1024" xmlns="http://www.w3.org/2000/svg" width="200" height="200"><defs><style/></defs><path d="M977.306 46.694a107.725 107.725 0 0 0-151.962 0L390.758 481.28a25.6 25.6 0 0 0-6.963 13.107L355.123 639.59a25.6 25.6 0 0 0 25.19 30.516h5.12l144.59-29.287a25.6 25.6 0 0 0 13.107-6.963l434.176-434.995a107.725 107.725 0 0 0 0-152.167zM512 591.667l-99.328 20.48 20.48-99.737 356.147-357.376 79.667 79.667zm429.056-429.056l-35.84 35.84-79.667-79.667 35.84-35.84a56.32 56.32 0 0 1 79.667 79.667z"/><path d="M884.122 430.08a25.6 25.6 0 0 0-19.252 30.72A403.866 403.866 0 1 1 567.5 160.154a25.6 25.6 0 1 0 12.084-49.767A455.27 455.27 0 1 0 914.842 450.56a25.6 25.6 0 0 0-30.72-20.48z"/></svg>