<svg class="icon" viewBox="0 0 1024 1024" xmlns="http://www.w3.org/2000/svg" width="200" height="200"><defs><style/></defs><path d="M640 875.52H353.28a25.6 25.6 0 0 0 0 51.2H640a25.6 25.6 0 0 0 0-51.2z"/><path d="M890.06 320.102v-61.44a20.48 20.48 0 0 0-18.84-20.48V122.88A122.88 122.88 0 0 0 748.34 0H256.82a122.88 122.88 0 0 0-122.88 122.88v778.24A122.88 122.88 0 0 0 256.82 1024h491.52a122.88 122.88 0 0 0 122.88-122.88V472.678a20.48 20.48 0 0 0 18.84-20.48v-61.44a20.48 20.48 0 0 0-18.84-20.48v-30.72a20.48 20.48 0 0 0 18.84-19.456zM819.2 901.12a71.68 71.68 0 0 1-71.68 71.68H256a71.68 71.68 0 0 1-71.68-71.68V122.88A71.68 71.68 0 0 1 256 51.2h125.747a67.994 67.994 0 0 0 65.331 49.562h92.16a67.994 67.994 0 0 0 66.15-49.562h143.36a71.68 71.68 0 0 1 70.452 71.68z"/></svg>