<svg class="icon" viewBox="0 0 1024 1024" xmlns="http://www.w3.org/2000/svg" width="200" height="200"><defs><style/></defs><path d="M901.12 102.4H122.88A122.88 122.88 0 0 0 0 225.28v573.44A122.88 122.88 0 0 0 122.88 921.6h778.24A122.88 122.88 0 0 0 1024 798.72V225.28A122.88 122.88 0 0 0 901.12 102.4zm-778.24 51.2h778.24a71.68 71.68 0 0 1 71.68 71.68v70.451L512 535.552 51.2 295.732V225.28a71.68 71.68 0 0 1 71.68-71.68zm778.24 716.8H122.88a71.68 71.68 0 0 1-71.68-71.68V353.485l448.922 233.677a25.6 25.6 0 0 0 23.552 0L972.8 353.485V798.72a71.68 71.68 0 0 1-71.68 71.68z"/></svg>