<svg class="icon" viewBox="0 0 1024 1024" xmlns="http://www.w3.org/2000/svg" width="200" height="200"><defs><style/></defs><path d="M896 103.834a76.8 76.8 0 0 1 76.8 76.8v554.598a76.8 76.8 0 0 1-76.8 76.8H579.174a72.5 72.5 0 0 0-31.948 7.373l-168.96 81.92v-69.632a20.48 20.48 0 0 0-20.48-20.48H128a76.8 76.8 0 0 1-76.8-75.981V180.634a76.8 76.8 0 0 1 76.8-76.8h768m0-51.2H128a128.41 128.41 0 0 0-128 128v554.598a128.41 128.41 0 0 0 128 128h197.018a2.048 2.048 0 0 1 2.048 2.048v84.582a20.48 20.48 0 0 0 30.72 19.252l211.968-103.63a20.48 20.48 0 0 1 9.42-2.252H896a128.41 128.41 0 0 0 128-128V180.634a128.41 128.41 0 0 0-128-128z"/><path d="M810.598 312.934H213.402a25.6 25.6 0 1 1 0-51.2h597.196a25.6 25.6 0 0 1 0 51.2zM640 532.48H213.402a25.6 25.6 0 1 1 0-51.2H640a25.6 25.6 0 0 1 0 51.2z"/></svg>