<svg class="icon" viewBox="0 0 1024 1024" xmlns="http://www.w3.org/2000/svg" width="200" height="200"><defs><style/></defs><path d="M230.4 108.34V26.42a25.6 25.6 0 0 0-51.2 0v81.92a128 128 0 0 0 0 250.88V998.4a25.6 25.6 0 0 0 51.2 0V359.22a128 128 0 0 0 0-250.88zm-25.6 202.342a76.8 76.8 0 1 1 76.8-76.8 77.005 77.005 0 0 1-76.8 76.8zm742.4-76.8a128.205 128.205 0 0 0-102.4-125.543V26.42a25.6 25.6 0 0 0-51.2 0v81.92a128 128 0 0 0 0 250.88V998.4a25.6 25.6 0 0 0 51.2 0V359.22a128 128 0 0 0 102.4-125.338zm-128 76.8a76.8 76.8 0 1 1 76.8-76.8 77.005 77.005 0 0 1-76.8 76.8zM537.6 664.78V25.6a25.6 25.6 0 0 0-51.2 0v639.18a128 128 0 0 0 0 250.88v81.92a25.6 25.6 0 0 0 51.2 0v-81.92a128 128 0 0 0 0-250.88zM512 866.918a76.8 76.8 0 1 1 76.8-76.8 76.8 76.8 0 0 1-76.8 76.8z"/></svg>