<svg class="icon" viewBox="0 0 1024 1024" xmlns="http://www.w3.org/2000/svg" width="200" height="200"><defs><style/></defs><path d="M983.04 330.138h-7.578v-81.92a107.725 107.725 0 0 0-107.52-107.52H371.917l-7.373-15.156A40.96 40.96 0 0 0 327.68 102.4h-204.8A122.88 122.88 0 0 0 0 225.28v573.44A122.88 122.88 0 0 0 122.88 921.6h778.24A122.88 122.88 0 0 0 1024 798.72V371.098a40.96 40.96 0 0 0-40.96-40.96zM867.942 192.102a56.32 56.32 0 0 1 56.32 56.32v81.92h-454.45a10.24 10.24 0 0 1-9.217-5.734l-64.102-132.506zM972.8 798.72a71.68 71.68 0 0 1-71.68 71.68H122.88a71.68 71.68 0 0 1-71.68-71.68V225.28a71.68 71.68 0 0 1 71.68-71.68h198.246l93.39 193.126a61.44 61.44 0 0 0 55.295 34.816H972.8z"/></svg>