<svg class="icon" viewBox="0 0 1024 1024" xmlns="http://www.w3.org/2000/svg" width="200" height="200"><defs><style/></defs><path d="M512 30.72a491.52 491.52 0 1 0 491.52 491.52A491.52 491.52 0 0 0 512 30.72zm25.6 930.611v-57.549a25.6 25.6 0 1 0-51.2 0v57.55A440.32 440.32 0 0 1 72.909 547.84h58.368a25.6 25.6 0 0 0 0-51.2H72.909A440.32 440.32 0 0 1 486.4 83.149v58.982a25.6 25.6 0 1 0 51.2 0V83.15A440.32 440.32 0 0 1 951.091 496.64h-58.368a25.6 25.6 0 0 0 0 51.2h58.368A440.32 440.32 0 0 1 537.6 961.331z"/><path d="M472.269 621.158h-133.12a156.672 156.672 0 0 1 11.059-13.107c6.758-7.168 22.528-20.48 46.694-40.96a641.638 641.638 0 0 0 63.079-58.368 152.78 152.78 0 0 0 27.853-40.96 102.4 102.4 0 0 0 8.601-40.96 91.136 91.136 0 0 0-29.286-68.608 110.592 110.592 0 0 0-78.029-27.853 115.507 115.507 0 0 0-78.438 25.6 97.485 97.485 0 0 0-30.516 51.815 24.371 24.371 0 0 0 3.687 19.456 25.805 25.805 0 0 0 18.022 10.445h1.639a25.395 25.395 0 0 0 26.828-20.48 52.429 52.429 0 0 1 13.517-28.058 58.778 58.778 0 0 1 43.418-15.974 57.958 57.958 0 0 1 40.96 14.95 49.152 49.152 0 0 1 15.565 36.864 76.8 76.8 0 0 1-17.408 46.08 434.79 434.79 0 0 1-72.09 68.608 430.08 430.08 0 0 0-53.658 50.38 157.696 157.696 0 0 0-27.852 44.852c-4.096 10.854-5.53 28.877 4.71 33.382a770.048 770.048 0 0 0 87.654 2.253h107.11a24.576 24.576 0 1 0 0-48.947zm260.3-74.752h-20.48V358.81a26.829 26.829 0 0 0-48.947-15.565L523.674 541.082a33.178 33.178 0 0 0-6.144 19.25 33.587 33.587 0 0 0 32.768 33.588h110.387v53.862a25.395 25.395 0 1 0 50.79 0V593.92h20.48a23.757 23.757 0 0 0 0-47.514zm-71.884-128v128h-88.883z"/></svg>