<svg class="icon" viewBox="0 0 1024 1024" xmlns="http://www.w3.org/2000/svg" width="200" height="200"><defs><style/></defs><path d="M375.398 972.39H168.96A148.685 148.685 0 0 1 20.48 823.91V168.55A148.685 148.685 0 0 1 168.96 20.48h655.36A148.685 148.685 0 0 1 972.8 168.55v282.01a25.6 25.6 0 1 1-51.2 0V168.55a97.28 97.28 0 0 0-97.28-97.28H168.96a97.28 97.28 0 0 0-97.28 97.28v655.36a97.485 97.485 0 0 0 97.28 97.69h206.438a25.6 25.6 0 1 1 0 51.2z"/><path d="M512 1003.52a22.938 22.938 0 0 1-6.554 0 25.395 25.395 0 0 1-18.432-19.046l-143.36-642.868a25.6 25.6 0 0 1 34.816-29.286l608.256 252.518a25.6 25.6 0 0 1 3.687 45.466L812.85 720.691l88.679 105.677a93.184 93.184 0 0 1-11.47 131.072 90.726 90.726 0 0 1-67.788 20.48 91.955 91.955 0 0 1-63.283-32.768L671.334 839.68 532.48 995.533a25.395 25.395 0 0 1-20.48 7.987zm159.13-228.762a25.805 25.805 0 0 1 19.25 9.216L798.72 912.59a40.96 40.96 0 1 0 64.102-53.863l-107.11-128.204a25.6 25.6 0 0 1 6.144-38.298L921.6 592.691 405.504 378.266 526.95 924.262 652.902 783.77a25.6 25.6 0 0 1 19.047-8.602z"/></svg>