<svg class="icon" viewBox="0 0 1024 1024" xmlns="http://www.w3.org/2000/svg" width="200" height="200"><defs><style/></defs><path d="M903.702 734.473L596.77 512.106l307.136-222.367a25.595 25.595 0 0 0 0-40.952L563.394 4.921a25.8 25.8 0 0 0-40.951 20.475V458.46l-372.25-270.075a25.39 25.39 0 0 0-35.628 5.733 25.595 25.595 0 0 0 5.733 35.832l389.45 282.157-389.04 282.36a25.595 25.595 0 1 0 29.895 40.952l372.659-270.075v433.062a25.39 25.39 0 0 0 13.923 22.728 25.8 25.8 0 0 0 11.671 2.867 26.414 26.414 0 0 0 14.948-4.71l339.898-243.252a25.595 25.595 0 0 0 0-40.951zM573.427 75.562l270.895 193.496-270.895 196.363zm0 873.087V559.61l270.895 196.363z"/></svg>