<svg class="icon" viewBox="0 0 1024 1024" xmlns="http://www.w3.org/2000/svg" width="200" height="200"><defs><style/></defs><path d="M673.382 161.382a351.642 351.642 0 0 0-333.414 241.05H223.232A223.437 223.437 0 0 0 0 625.664v13.926a223.437 223.437 0 0 0 223.232 223.232h450.56a350.822 350.822 0 0 0 0-701.44zm0 650.24h-450.56A172.237 172.237 0 0 1 50.79 639.59v-13.926a172.237 172.237 0 0 1 172.032-172.032H327.68A343.654 343.654 0 0 0 322.56 512a25.6 25.6 0 0 0 51.2 0 299.622 299.622 0 1 1 299.622 299.622z"/></svg>