<svg class="icon" viewBox="0 0 1024 1024" xmlns="http://www.w3.org/2000/svg" width="200" height="200"><defs><style/></defs><path d="M975.462 135.578l-87.04-87.04a148.89 148.89 0 0 0-209.92 0L504.627 222.413a148.685 148.685 0 0 0 0 209.92l25.395 25.395-72.499 72.5-25.395-25.396a148.685 148.685 0 0 0-209.92 0l-173.67 173.67a148.89 148.89 0 0 0 0 209.92l86.835 86.836a148.89 148.89 0 0 0 209.92 0l173.875-173.876a148.685 148.685 0 0 0 0-209.92l-25.395-25.395 72.499-72.499 25.395 25.395a148.685 148.685 0 0 0 209.92 0l173.875-173.875a148.89 148.89 0 0 0 0-209.92zm-491.52 491.52a97.485 97.485 0 0 1 0 137.625l-174.694 174.49a97.69 97.69 0 0 1-137.626 0l-86.835-86.835a97.69 97.69 0 0 1 0-137.626l173.875-173.875a97.485 97.485 0 0 1 137.626 0l25.395 25.395-102.4 102.4a25.6 25.6 0 1 0 36.25 36.25l102.4-102.4zm455.27-317.85L765.339 483.123a97.485 97.485 0 0 1-137.626 0l-25.395-25.395 120.422-120.422a25.6 25.6 0 1 0-36.25-36.25L566.068 421.478l-25.395-25.395a97.485 97.485 0 0 1 0-137.625l174.08-173.67a97.69 97.69 0 0 1 137.626 0l86.835 86.834a97.69 97.69 0 0 1 0 137.626z"/></svg>