<svg class="icon" viewBox="0 0 1024 1024" xmlns="http://www.w3.org/2000/svg" width="200" height="200"><defs><style/></defs><path d="M973.693 383.072L849.824 54.052A83.33 83.33 0 0 0 757.69 1.228L412.905 59.375a83.33 83.33 0 0 0-58.352 40.949L61.568 607.06a124.893 124.893 0 0 0 45.862 170.96l396.995 228.901a124.893 124.893 0 0 0 171.369-45.657l292.78-507.146a83.33 83.33 0 0 0 5.12-71.046zm-50.162 45.453l-292.78 507.146a73.707 73.707 0 0 1-100.734 26.616L133.023 733.386a73.912 73.912 0 0 1-27.026-100.733l292.985-507.146a31.94 31.94 0 0 1 22.522-15.56l344.99-58.352h5.324a32.35 32.35 0 0 1 30.097 20.474l123.869 329.225a31.94 31.94 0 0 1-2.253 27.231z"/><path d="M699.134 211.294a116.293 116.293 0 1 0 42.586 158.88 115.68 115.68 0 0 0-42.586-158.88zm-1.843 133.287a65.108 65.108 0 0 1-88.858 23.955 65.108 65.108 0 0 1-23.75-88.858 65.108 65.108 0 0 1 88.858-23.75 65.108 65.108 0 0 1 23.75 88.857zM497.26 810.983L280.846 685.886a25.593 25.593 0 1 0-25.592 44.224l215.798 125.097a25.593 25.593 0 0 0 25.592-44.224z"/></svg>