<svg class="icon" viewBox="0 0 1024 1024" xmlns="http://www.w3.org/2000/svg" width="200" height="200"><defs><style/></defs><path d="M1003.868 476.16h-5.53l-178.79 50.586v-39.322a122.88 122.88 0 0 0-122.88-122.88h-8.192a163.84 163.84 0 1 0-233.062 0H308.982a184.32 184.32 0 1 0-235.52 11.469A122.88 122.88 0 0 0 2.396 487.424v368.64a122.88 122.88 0 0 0 122.88 122.88h571.392a122.88 122.88 0 0 0 122.88-122.88v-39.731l178.381 49.766a26.829 26.829 0 0 0 5.53 0 20.48 20.48 0 0 0 20.48-20.48V496.64a20.48 20.48 0 0 0-20.07-20.48zM572.56 138.035a112.435 112.435 0 1 1-112.436 112.23 112.435 112.435 0 0 1 112.436-112.23zM51.344 229.99A132.915 132.915 0 1 1 184.668 362.7 133.12 133.12 0 0 1 51.344 229.99zm921.6 575.898L833.27 766.976l-64.717-18.022V855.45a71.68 71.68 0 0 1-71.885 71.475H125.072a71.68 71.68 0 0 1-71.476-71.475V486.81a71.68 71.68 0 0 1 71.476-71.476h571.596a71.68 71.68 0 0 1 71.68 71.476v107.11l64.717-18.022 139.674-38.912z"/><path d="M215.798 472.269h-81.92a25.6 25.6 0 1 0 0 50.995h81.92a25.6 25.6 0 1 0 0-50.995zm0 81.715h-81.92a25.6 25.6 0 1 0 0 50.995h81.92a25.6 25.6 0 1 0 0-50.995z"/></svg>