<svg class="icon" viewBox="0 0 1024 1024" xmlns="http://www.w3.org/2000/svg" width="200" height="200"><defs><style/></defs><path d="M380.52 550.089a239.614 239.614 0 0 0 239.409-239.41v-71.27a239.41 239.41 0 0 0-478.819 0v71.27a239.614 239.614 0 0 0 239.41 239.41zm-188.21-310.68a188.21 188.21 0 0 1 376.42 0v71.27a188.21 188.21 0 0 1-376.42 0z"/><path d="M705.74 491.516a266.238 266.238 0 0 0-219.954 116.121 309.45 309.45 0 0 0-83.558-11.674h-43.212A307.198 307.198 0 0 0 51.818 903.161a100.76 100.76 0 0 0 100.966 100.351H603.34a266.238 266.238 0 1 0 102.4-511.996zM152.783 952.313a49.356 49.356 0 0 1-50.38-49.357 255.998 255.998 0 0 1 256.612-255.793h43.212a252.516 252.516 0 0 1 58.163 6.963 266.238 266.238 0 0 0 63.897 298.187zm552.955 20.48a215.038 215.038 0 1 1 215.858-215.039 215.243 215.243 0 0 1-215.858 215.039z"/><path d="M805.476 732.154H605.798a25.6 25.6 0 0 0 0 51.2h199.678a25.6 25.6 0 0 0 0-51.2z"/></svg>