<svg class="icon" viewBox="0 0 1024 1024" xmlns="http://www.w3.org/2000/svg" width="200" height="200"><defs><style/></defs><path d="M792.576 547.84a25.6 25.6 0 0 0 0-51.2H537.6V241.664a25.6 25.6 0 1 0-51.2 0V496.64H231.424a25.6 25.6 0 1 0 0 51.2H486.4v254.976a25.6 25.6 0 0 0 51.2 0V547.84zM51.2 648.602a25.6 25.6 0 0 0 25.6-25.6v-81.92a25.6 25.6 0 0 0-51.2 0v81.92a25.6 25.6 0 0 0 25.6 25.6zm0-184.32a25.6 25.6 0 0 0 25.6-25.6v-81.92a25.6 25.6 0 0 0-51.2 0v81.92a25.6 25.6 0 0 0 25.6 25.6zm76.595 481.28a99.533 99.533 0 0 1-43.008-47.31A26.01 26.01 0 0 0 51.2 884.942a25.19 25.19 0 0 0-13.312 33.587 149.094 149.094 0 0 0 64.512 71.885 26.01 26.01 0 0 0 12.288 3.072 25.6 25.6 0 0 0 22.528-13.312 24.576 24.576 0 0 0 3.072-12.083 25.6 25.6 0 0 0-12.493-22.528zM76.8 807.322v-81.92a25.6 25.6 0 0 0-51.2 0v81.92a25.6 25.6 0 0 0 51.2 0zM832.512 87.04h17.408a96.666 96.666 0 0 1 48.742 13.107 23.962 23.962 0 0 0 12.903 3.482 25.395 25.395 0 0 0 24.78-31.949 24.78 24.78 0 0 0-11.878-15.565 146.637 146.637 0 0 0-74.547-20.48h-17.408a25.6 25.6 0 0 0 0 51.2zm-368.64 0h81.92a25.6 25.6 0 0 0 0-51.2h-81.92a25.6 25.6 0 0 0 0 51.2zm-261.12-25.6a25.6 25.6 0 0 0-25.6-25.6h-3.277a147.866 147.866 0 0 0-88.678 29.491 26.01 26.01 0 0 0-10.035 20.48 23.757 23.757 0 0 0 5.12 15.155 24.986 24.986 0 0 0 20.48 10.24 24.78 24.78 0 0 0 14.95-4.915 95.437 95.437 0 0 1 57.958-20.48h3.072a25.6 25.6 0 0 0 26.01-24.371zm76.8 25.6h81.92a25.6 25.6 0 0 0 0-51.2h-81.92a25.6 25.6 0 1 0 0 51.2zM51.2 279.962a25.6 25.6 0 0 0 25.6-25.6V174.9a25.6 25.6 0 0 0-50.586-4.916v84.378a25.6 25.6 0 0 0 24.986 25.6zM648.192 87.04h81.92a25.6 25.6 0 0 0 0-51.2h-81.92a25.6 25.6 0 0 0 0 51.2zM972.8 317.03a25.6 25.6 0 0 0-25.6 25.6v81.92a25.6 25.6 0 1 0 51.2 0v-81.92a25.6 25.6 0 0 0-25.6-25.6zm0 368.64a25.6 25.6 0 0 0-25.6 25.6v81.92a25.6 25.6 0 0 0 51.2 0v-81.92a25.6 25.6 0 0 0-25.6-25.6zm0-184.32a25.6 25.6 0 0 0-25.6 25.6v81.92a25.6 25.6 0 1 0 51.2 0v-81.92a25.6 25.6 0 0 0-25.6-25.6zm22.323-348.16a26.01 26.01 0 0 0-30.515-20.48 25.395 25.395 0 0 0-20.48 25.19 23.552 23.552 0 0 0 0 5.326 109.773 109.773 0 0 1 2.048 20.48v55.91a25.6 25.6 0 1 0 51.2 0V184.32a155.853 155.853 0 0 0-2.253-31.13zm-20.07 717.415a26.01 26.01 0 0 0-31.949 17.203 99.328 99.328 0 0 1-37.274 51.61 25.805 25.805 0 0 0-5.939 35.635 25.395 25.395 0 0 0 35.635 6.144 150.528 150.528 0 0 0 56.73-78.848 28.672 28.672 0 0 0 0-6.963 25.805 25.805 0 0 0-17.203-24.781zM296.96 957.44h-81.92a25.6 25.6 0 0 0 0 51.2h81.92a25.6 25.6 0 0 0 0-51.2zm184.32 0h-81.92a25.6 25.6 0 0 0 0 51.2h81.92a25.6 25.6 0 0 0 0-51.2zm184.32 0h-81.92a25.6 25.6 0 0 0 0 51.2h81.92a25.6 25.6 0 0 0 0-51.2zm184.32 0H768a25.6 25.6 0 0 0 0 51.2h81.92a25.6 25.6 0 0 0 0-51.2z"/></svg>