<svg class="icon" viewBox="0 0 1024 1024" xmlns="http://www.w3.org/2000/svg" width="200" height="200"><defs><style/></defs><path d="M359.014 97.28a71.68 71.68 0 0 1 71.066 71.68v195.174a71.68 71.68 0 0 1-71.68 71.68H163.84a71.68 71.68 0 0 1-71.68-71.68V168.96a71.68 71.68 0 0 1 71.68-71.68h195.174m0-51.2H163.84A122.88 122.88 0 0 0 40.96 168.96v195.174a122.88 122.88 0 0 0 122.88 122.88h195.174a122.88 122.88 0 0 0 122.88-122.88V168.96a122.88 122.88 0 0 0-122.88-122.88zm501.146 51.2a71.68 71.68 0 0 1 71.68 71.68v195.174a71.68 71.68 0 0 1-71.68 71.68H664.986a71.68 71.68 0 0 1-71.68-71.68V168.96a71.68 71.68 0 0 1 71.68-71.68H860.16m0-51.2H664.986a122.88 122.88 0 0 0-122.88 122.88v195.174a122.88 122.88 0 0 0 122.88 122.88H860.16a122.88 122.88 0 0 0 122.88-122.88V168.96A122.88 122.88 0 0 0 860.16 46.08zM359.014 598.426a71.68 71.68 0 0 1 71.68 71.68V865.28a71.68 71.68 0 0 1-71.68 71.68H163.84a71.68 71.68 0 0 1-71.68-71.68V670.106a71.68 71.68 0 0 1 71.68-71.68h195.174m0-51.2H163.84a122.88 122.88 0 0 0-122.88 122.88V865.28a122.88 122.88 0 0 0 122.88 122.88h195.174a122.88 122.88 0 0 0 122.88-122.88V670.106a122.88 122.88 0 0 0-122.88-122.88zM583.066 967.27a25.6 25.6 0 0 1-25.6-25.19V593.92a25.6 25.6 0 0 1 51.2 0v348.16a25.6 25.6 0 0 1-25.6 25.19zm348.774 0a25.6 25.6 0 0 1-25.6-25.19V593.92a25.6 25.6 0 0 1 51.2 0v348.16a25.6 25.6 0 0 1-25.6 25.19zm-169.37 0a25.6 25.6 0 0 1-25.19-25.19V655.36a25.6 25.6 0 0 1 51.2 0v286.72a25.6 25.6 0 0 1-26.01 25.19z"/></svg>