<svg class="icon" viewBox="0 0 1024 1024" xmlns="http://www.w3.org/2000/svg" width="200" height="200"><defs><style/></defs><path d="M968.294 407.962l-86.22-38.093V66.56A66.56 66.56 0 0 0 815.514 0H208.486a66.56 66.56 0 0 0-66.56 66.56v303.309l-86.22 38.093a25.6 25.6 0 0 0-14.746 23.347V875.52A148.685 148.685 0 0 0 189.03 1024h645.94a148.685 148.685 0 0 0 148.07-148.48V431.309a25.6 25.6 0 0 0-14.746-23.347zM208.486 51.2h607.028a15.36 15.36 0 0 1 15.36 15.36v318.26L512 634.88 193.126 384.82V66.56a15.36 15.36 0 0 1 15.36-15.36zM932.25 875.52a97.28 97.28 0 0 1-97.28 97.28H189.03a97.28 97.28 0 0 1-97.28-97.28V448.102l63.284-28.057L496.23 687.718a25.19 25.19 0 0 0 31.54 0l341.196-267.673 63.284 28.057z"/><path d="M358.4 207.462h307.2a25.6 25.6 0 0 0 0-51.2H358.4a25.6 25.6 0 0 0 0 51.2zm0 143.36h307.2a25.6 25.6 0 0 0 0-51.2H358.4a25.6 25.6 0 0 0 0 51.2z"/></svg>