<svg class="icon" viewBox="0 0 1024 1024" xmlns="http://www.w3.org/2000/svg" width="200" height="200"><defs><style/></defs><path d="M860.16 92.16a71.68 71.68 0 0 1 71.68 71.68v696.32a71.68 71.68 0 0 1-71.68 71.68H163.84a71.68 71.68 0 0 1-71.68-71.68V163.84a71.68 71.68 0 0 1 71.68-71.68h696.32m0-51.2H163.84A122.88 122.88 0 0 0 40.96 163.84v696.32a122.88 122.88 0 0 0 122.88 122.88h696.32a122.88 122.88 0 0 0 122.88-122.88V163.84A122.88 122.88 0 0 0 860.16 40.96z"/><path d="M368.64 701.44a25.6 25.6 0 0 1-25.6-25.6V348.16a25.6 25.6 0 0 1 51.2 0v327.68a25.6 25.6 0 0 1-25.6 25.6zm286.72 0a25.6 25.6 0 0 1-25.6-25.6V348.16a25.6 25.6 0 0 1 51.2 0v327.68a25.6 25.6 0 0 1-25.6 25.6z"/></svg>