<svg class="icon" viewBox="0 0 1024 1024" xmlns="http://www.w3.org/2000/svg" width="200" height="200"><defs><style/></defs><path d="M850.534 28.262H331.981a145.613 145.613 0 0 0-145.408 144.59h-35.43a122.88 122.88 0 0 0-122.88 122.88v577.33a122.88 122.88 0 0 0 122.88 122.88h577.126a122.88 122.88 0 0 0 122.88-122.88v-35.635A145.613 145.613 0 0 0 995.942 692.02V173.466A145.613 145.613 0 0 0 850.534 28.262zm-50.585 844.8a71.885 71.885 0 0 1-71.68 71.68H151.142a71.885 71.885 0 0 1-71.68-71.68v-577.33a71.68 71.68 0 0 1 71.68-71.68H728.27a71.68 71.68 0 0 1 71.68 71.68zM944.742 692.02a94.003 94.003 0 0 1-93.593 94.003v-490.29a122.88 122.88 0 0 0-122.88-122.88H237.978a93.798 93.798 0 0 1 94.003-93.39h518.553a94.208 94.208 0 0 1 94.208 94.004z"/><path d="M610.918 387.482h-342.63a25.6 25.6 0 0 0 0 51.2h145.818v317.03a25.6 25.6 0 0 0 51.2 0v-317.03h145.612a25.6 25.6 0 0 0 0-51.2z"/></svg>