<svg class="icon" viewBox="0 0 1024 1024" xmlns="http://www.w3.org/2000/svg" width="200" height="200"><defs><style/></defs><path d="M997.904 247.19L577.414 5.36a25.552 25.552 0 1 0-24.53 44.155L624.226 90.4l-140.64 242.032c-145.75-12.06-267.38 47.425-335.247 164.966l-40.884 72.569-55.806-31.89a25.552 25.552 0 0 0-25.553 44.36l351.6 202.987L262.2 985.55a25.552 25.552 0 0 0 9.403 34.956 24.326 24.326 0 0 0 12.674 3.475 25.757 25.757 0 0 0 23.304-12.878l115.497-200.127 351.6 203.193a26.779 26.779 0 0 0 12.879 3.27 25.552 25.552 0 0 0 12.674-47.629l-55.807-31.685 41.906-72.364c67.867-117.541 58.668-252.662-24.734-373.27l138.8-241.214 71.342 40.884a26.37 26.37 0 0 0 12.674 3.475 25.552 25.552 0 0 0 13.492-48.447zM709.06 481.657a25.348 25.348 0 0 0 1.635 28.005c81.768 108.138 91.989 224.86 31.276 330.545l-40.883 72.365L150.792 594.7l41.906-72.364C254.023 417.266 360.526 368.205 494.42 384.15a25.552 25.552 0 0 0 25.143-12.47l147.795-255.319 189.497 110.386z"/></svg>