<svg class="icon" viewBox="0 0 1024 1024" xmlns="http://www.w3.org/2000/svg" width="200" height="200"><defs><style/></defs><path d="M655.36 368.64a71.68 71.68 0 0 1 71.68 71.68v286.72a235.52 235.52 0 0 1-235.52 235.52h-204.8A235.52 235.52 0 0 1 51.2 726.426v-286.72a71.68 71.68 0 0 1 71.68-71.066h532.48m0-51.2H122.88A122.88 122.88 0 0 0 0 440.32v286.72a286.72 286.72 0 0 0 286.72 286.72h204.8a286.72 286.72 0 0 0 286.72-286.72V440.32a122.88 122.88 0 0 0-122.88-122.88z"/><path d="M875.725 738.304a25.6 25.6 0 1 1 0-51.2 97.28 97.28 0 1 0-97.485-97.075 25.6 25.6 0 0 1-51.2 0 148.275 148.275 0 1 1 148.275 148.275zm-715.981-456.09a25.6 25.6 0 0 1-12.493-47.923c8.602-4.915 33.178-23.142 32.154-40.96a61.44 61.44 0 0 0-19.047-36.045 94.618 94.618 0 0 1-28.262-62.873 93.184 93.184 0 0 1 52.224-80.691 25.6 25.6 0 0 1 22.528 45.875 43.418 43.418 0 0 0-22.528 34.816c0 9.83 5.53 16.998 16.384 29.696a108.134 108.134 0 0 1 30.925 65.74c3.072 53.453-52.02 85.607-58.368 89.089a25.6 25.6 0 0 1-13.517 3.276zm207.462 0a25.6 25.6 0 0 1-12.492-47.923c8.601-4.915 33.177-23.142 32.153-40.96a61.44 61.44 0 0 0-18.227-36.454 94.822 94.822 0 0 1-28.262-62.464 93.184 93.184 0 0 1 51.2-80.691 25.6 25.6 0 0 1 22.528 45.875 43.418 43.418 0 0 0-23.552 34.816c0 9.625 5.53 16.998 16.384 29.696a108.134 108.134 0 0 1 30.924 65.74c3.072 53.453-52.019 85.607-58.368 89.089a25.6 25.6 0 0 1-12.288 3.276zm207.463 0a25.6 25.6 0 0 1-12.493-47.923c8.602-4.915 33.178-23.142 31.949-40.96a61.44 61.44 0 0 0-19.047-36.045 94.618 94.618 0 0 1-28.262-62.464 93.184 93.184 0 0 1 52.224-81.1 25.6 25.6 0 0 1 22.528 45.875 43.418 43.418 0 0 0-23.552 34.816c0 9.83 5.53 16.998 16.384 29.696a108.134 108.134 0 0 1 30.925 65.74c3.072 53.453-52.02 85.607-58.163 89.089a25.6 25.6 0 0 1-12.493 3.276z"/></svg>