<svg class="icon" viewBox="0 0 1024 1024" xmlns="http://www.w3.org/2000/svg" width="200" height="200"><defs><style/></defs><path d="M739.533 399.974L848.69 32.973a25.19 25.19 0 0 0-4.096-22.528A25.805 25.805 0 0 0 824.115 0H200.09a26.01 26.01 0 0 0-24.781 33.178l109.773 366.387a353.485 353.485 0 1 0 454.45 0zM695.09 368.64a351.027 351.027 0 0 0-105.267-42.598V51.405h199.68zM512 316.826c-8.806 0-17.613 0-26.214 1.433V52.02h52.428v266.24c-8.601-.614-17.408-1.433-26.214-1.433zM234.496 50.586h199.68v274.432a348.16 348.16 0 0 0-104.858 43.622zM512 972.596a302.08 302.08 0 1 1 302.08-302.08A302.49 302.49 0 0 1 512 972.595z"/><path d="M512 441.754a228.762 228.762 0 1 0 228.762 228.761A228.762 228.762 0 0 0 512 441.754zm0 405.913a177.357 177.357 0 1 1 177.357-177.152A177.562 177.562 0 0 1 512 847.667z"/></svg>