<svg class="icon" viewBox="0 0 1024 1024" xmlns="http://www.w3.org/2000/svg" width="200" height="200"><defs><style/></defs><path d="M757.735 177.237H612.956V51.502h42.39a25.802 25.802 0 1 0 0-51.4H368.654a25.802 25.802 0 1 0 0 51.4h42.8v125.735h-145.19a122.868 122.868 0 0 0-122.867 122.868V875.74a122.868 122.868 0 0 0 122.868 122.867h32.15a33.789 33.789 0 0 0 65.325 0h297.34a33.789 33.789 0 0 0 65.324 0h31.331A122.868 122.868 0 0 0 880.603 875.74V300.514a122.868 122.868 0 0 0-122.868-123.277zM462.443 51.502h99.114v125.735h-99.114zm99.114 177.135v719.185h-99.114V228.637zM192.954 875.74V300.514a71.878 71.878 0 0 1 73.31-71.877h145.599v719.185H266.265a72.082 72.082 0 0 1-72.697-72.082zm636.864 0a72.082 72.082 0 0 1-72.083 72.082H612.956V228.637h144.78a71.878 71.878 0 0 1 71.877 71.877z"/></svg>