<svg class="icon" viewBox="0 0 1024 1024" xmlns="http://www.w3.org/2000/svg" width="200" height="200"><defs><style/></defs><path d="M843.76 12.338A26.213 26.213 0 0 0 823.28.461C814.27.05 630.778-5.48 512 110.433 392.812-5.887 209.116.05 200.924.05a25.19 25.19 0 0 0-20.479 11.878C174.711 20.53 45.08 229.825 151.57 414.136c89.698 155.64 270.732 207.452 334.831 220.763v363.502a25.599 25.599 0 0 0 51.198 0V634.9c64.099-13.72 245.747-65.737 334.831-221.377C978.92 230.03 849.29 20.53 843.76 12.338zM195.804 389.152c-77.616-134.547-3.072-293.055 20.479-337.084 42.8 1.024 175.3 11.673 261.72 97.89-6.143 8.6-12.286 17.611-17.816 27.236-81.916 140.69-28.875 316.196 5.325 400.774-71.677-21.298-202.537-73.11-269.708-188.816zm632.39 0c-79.253 137.414-247.18 184.31-302.679 197.212-26.008-56.931-100.347-245.748-20.479-383.776 77.615-134.956 252.71-149.496 302.27-150.93 23.96 44.235 98.709 202.128 20.888 337.494zm-6.348 389.1a219.944 219.944 0 0 0-219.74 220.15 25.599 25.599 0 0 0 51.198 0 168.747 168.747 0 0 1 168.542-168.543 25.599 25.599 0 0 0 0-51.197zm-619.694 0a25.599 25.599 0 1 0 0 51.198 168.747 168.747 0 0 1 168.542 168.542 25.599 25.599 0 0 0 51.197 0 219.944 219.944 0 0 0-219.739-219.74z"/></svg>