<svg class="icon" viewBox="0 0 1024 1024" xmlns="http://www.w3.org/2000/svg" width="200" height="200"><defs><style/></defs><path d="M901.12 125.542H734.822v-61.44a25.6 25.6 0 0 0-51.2 0v61.44h-343.04v-61.44a25.6 25.6 0 1 0-51.2 0v61.44H122.88A122.88 122.88 0 0 0 0 248.422v614.4a122.88 122.88 0 0 0 122.88 122.88h778.24A122.88 122.88 0 0 0 1024 862.822v-614.4a122.88 122.88 0 0 0-122.88-122.88zm-778.24 51.2h166.502v39.936a25.6 25.6 0 1 0 51.2 0v-39.936h343.04v39.936a25.6 25.6 0 0 0 51.2 0v-39.936H901.12a71.68 71.68 0 0 1 71.68 71.68V332.8H51.2v-84.378a71.68 71.68 0 0 1 71.68-71.68zm778.24 757.76H122.88a71.885 71.885 0 0 1-71.68-71.68V384h921.6v478.822a71.885 71.885 0 0 1-71.68 71.68z"/><path d="M724.378 491.52L472.064 744.653 340.582 613.17a25.6 25.6 0 0 0-36.25 0 26.01 26.01 0 0 0 0 36.25l149.71 149.299a24.78 24.78 0 0 0 18.022 7.578 25.6 25.6 0 0 0 18.227-7.578l270.336-270.336a25.6 25.6 0 0 0 0-36.25 26.01 26.01 0 0 0-36.25-.614z"/></svg>