<svg class="icon" viewBox="0 0 1024 1024" xmlns="http://www.w3.org/2000/svg" width="200" height="200"><defs><style/></defs><path d="M899.764 777.838a122.695 122.695 0 0 0-120.036 97.133h-148.46a122.695 122.695 0 0 0-240.073 0h-148.46a124.33 124.33 0 0 0-17.177-40.898l219.01-219.828a122.695 122.695 0 0 0 168.909-168.91L833.1 225.714a122.695 122.695 0 1 0-53.372-128.42h-148.46a122.695 122.695 0 0 0-240.073 0h-148.46a122.695 122.695 0 1 0 0 51.122h148.46a122.695 122.695 0 0 0 240.073 0h148.46a124.33 124.33 0 0 0 17.177 40.898l-219.01 220.441a122.695 122.695 0 0 0-168.909 168.91L189.363 798.287a122.695 122.695 0 1 0 53.372 128.42h148.46a122.695 122.695 0 0 0 240.073 0h148.46a122.695 122.695 0 1 0 120.036-148.869zM122.7 195.04a71.572 71.572 0 1 1 71.571-71.572A71.572 71.572 0 0 1 122.7 195.04zm388.532 0a71.572 71.572 0 1 1 71.572-71.572 71.572 71.572 0 0 1-71.572 71.572zM899.764 51.895a71.572 71.572 0 1 1-71.572 71.572 71.572 71.572 0 0 1 71.572-71.572zM511.231 440.428A71.572 71.572 0 1 1 439.66 512a71.572 71.572 0 0 1 71.571-71.572zM122.7 972.104a71.572 71.572 0 1 1 71.571-71.571 71.572 71.572 0 0 1-71.571 71.571zm388.532 0a71.572 71.572 0 1 1 71.572-71.571 71.572 71.572 0 0 1-71.572 71.571zm388.533 0a71.572 71.572 0 1 1 71.572-71.571 71.572 71.572 0 0 1-71.572 71.571z"/></svg>