<svg class="icon" viewBox="0 0 1024 1024" xmlns="http://www.w3.org/2000/svg" width="200" height="200"><defs><style/></defs><path d="M1020.109 351.437l-194.56-312.32a25.805 25.805 0 0 0-21.709-11.879H220.16a25.805 25.805 0 0 0-21.709 11.879L3.891 351.437a26.01 26.01 0 0 0 1.639 29.696L490.29 987.34a26.01 26.01 0 0 0 20.48 9.42 25.395 25.395 0 0 0 20.48-9.42l488.039-606.208a25.6 25.6 0 0 0 .819-29.696zm-71.066-16.999H718.438l90.112-225.28zm-301.875 51.2L512 853.606 376.832 385.638zm-256.205-51.2l122.88-216.064 120.013 216.064zm158.925-256h215.654l-90.112 225.28zM348.16 304.742l-90.317-225.28H477.39zm-24.576 80.896l140.493 486.81-389.12-486.81zm377.037 0h248.422L561.357 867.123zM215.45 108.748l90.112 225.28H74.957z"/></svg>