<svg class="icon" viewBox="0 0 1024 1024" xmlns="http://www.w3.org/2000/svg" width="200" height="200"><defs><style/></defs><path d="M998.912 175.104a109.363 109.363 0 0 0-84.582-39.936H203.878l-3.072-20.48a109.158 109.158 0 0 0-108.339-91.34H25.702a25.6 25.6 0 1 0 0 51.404h66.765a57.958 57.958 0 0 1 57.549 48.128l81.92 516.3a109.158 109.158 0 0 0 108.34 92.366h466.738a151.962 151.962 0 0 0 148.89-122.88l66.15-342.426a109.363 109.363 0 0 0-23.142-91.136zM971.674 256l-66.15 343.86a100.352 100.352 0 0 1-98.51 81.92h-466.33a57.958 57.958 0 0 1-57.548-49.153L212.07 186.573h702.464a58.368 58.368 0 0 1 57.344 69.222zM379.802 773.12A113.869 113.869 0 1 0 493.67 886.989 113.869 113.869 0 0 0 379.802 773.12zm0 176.333a61.44 61.44 0 1 1 61.44-61.44 62.464 62.464 0 0 1-61.44 61.44zM791.859 773.12a113.869 113.869 0 1 0 113.869 113.869A113.869 113.869 0 0 0 791.859 773.12zm0 176.333a61.44 61.44 0 1 1 61.44-61.44 62.464 62.464 0 0 1-61.44 61.44z"/><path d="M774.246 557.67h-372.53a25.6 25.6 0 0 0 0 51.405h372.53a25.6 25.6 0 0 0 0-51.405z"/></svg>