<svg class="icon" viewBox="0 0 1024 1024" xmlns="http://www.w3.org/2000/svg" width="200" height="200"><defs><style/></defs><path d="M747.315 288.768a25.6 25.6 0 0 0 17.613 31.54l151.552 43.007a25.19 25.19 0 0 0 6.963 0 25.6 25.6 0 0 0 24.576-18.637l43.008-151.552a25.6 25.6 0 0 0-48.947-12.902l-24.78 87.45a476.16 476.16 0 1 0 45.26 384.614 25.6 25.6 0 1 0-48.947-15.155 425.165 425.165 0 1 1-38.707-338.74l-96.666-27.238a25.6 25.6 0 0 0-30.925 17.613z"/><path d="M668.467 268.698a25.6 25.6 0 0 0-36.25 0L508.11 392.806 384 268.698a25.6 25.6 0 0 0-35.84 36.044l106.291 106.292H368.64a25.6 25.6 0 1 0 0 51.2h113.05v84.172H368.64a25.6 25.6 0 0 0 0 51.2h113.05V778.24a25.6 25.6 0 0 0 51.2 0V597.606h113.05a25.6 25.6 0 0 0 0-51.2H533.708v-84.172h113.05a25.6 25.6 0 0 0 0-51.2h-84.583l106.291-106.292a25.6 25.6 0 0 0 0-36.044z"/></svg>