<svg class="icon" viewBox="0 0 1024 1024" xmlns="http://www.w3.org/2000/svg" width="200" height="200"><defs><style/></defs><path d="M746.654 426.717a213.36 213.36 0 1 0-214.178-213.155 213.36 213.36 0 0 0 214.178 213.155zm0-375.324a162.17 162.17 0 1 1-162.17 162.17 162.374 162.374 0 0 1 162.17-162.17zm7.576 418.119h-15.357A184.283 184.283 0 0 0 554.59 653.795v336.01A34.4 34.4 0 0 0 588.785 1024h315.534a34.195 34.195 0 0 0 34.195-34.195v-336.01A184.283 184.283 0 0 0 754.23 469.512zM887.324 972.81H605.78V653.795a133.298 133.298 0 0 1 133.093-133.094h15.357a133.094 133.094 0 0 1 133.094 133.094zM277.346.203a213.36 213.36 0 1 0 214.178 213.36A213.155 213.155 0 0 0 277.346.202zm0 375.324a162.17 162.17 0 1 1 162.17-161.965 162.17 162.17 0 0 1-162.17 161.965zm7.78 93.985H269.77A184.283 184.283 0 0 0 85.486 653.795v336.01A34.195 34.195 0 0 0 119.681 1024h315.534a34.4 34.4 0 0 0 34.195-34.195v-336.01a184.283 184.283 0 0 0-184.283-184.283zM418.22 972.81H136.676V653.795A133.094 133.094 0 0 1 269.77 520.701h15.357A133.298 133.298 0 0 1 418.22 653.795z"/></svg>