<svg class="icon" viewBox="0 0 1024 1024" xmlns="http://www.w3.org/2000/svg" width="200" height="200"><defs><style/></defs><path d="M509.542 761.446a59.187 59.187 0 1 1-40.96 17.408 58.778 58.778 0 0 1 40.96-17.408m0-51.2a110.387 110.387 0 1 0 78.03 32.359 109.978 109.978 0 0 0-78.03-32.359zm220.98-85.196a25.6 25.6 0 0 1-18.023-7.578 286.72 286.72 0 0 0-406.118 0 25.6 25.6 0 0 1-36.25-36.25 338.74 338.74 0 0 1 478.413 0 25.6 25.6 0 0 1-18.022 43.623z"/><path d="M860.16 476.57a25.6 25.6 0 0 1-18.022-7.578 471.04 471.04 0 0 0-666.215 0 25.6 25.6 0 0 1-36.25-36.25 522.854 522.854 0 0 1 738.51 0 25.6 25.6 0 0 1-18.023 43.828z"/><path d="M990.822 327.68a25.6 25.6 0 0 1-18.022-7.578 655.36 655.36 0 0 0-926.31 0 25.6 25.6 0 0 1-36.455-35.635 706.97 706.97 0 0 1 998.81 0 25.6 25.6 0 0 1-18.023 43.213z"/></svg>