<svg class="icon" viewBox="0 0 1024 1024" xmlns="http://www.w3.org/2000/svg" width="200" height="200"><defs><style/></defs><path d="M512 573.44a245.76 245.76 0 0 0 245.76-245.76v-81.92a245.76 245.76 0 0 0-491.52 0v81.92A245.76 245.76 0 0 0 512 573.44zM317.44 245.76a194.56 194.56 0 0 1 389.12 0v81.92a194.56 194.56 0 0 1-389.12 0zM552.96 614.4h-81.92a307.2 307.2 0 0 0-307.2 307.2v20.48a81.92 81.92 0 0 0 81.92 81.92h532.48a81.92 81.92 0 0 0 81.92-81.92V921.6a307.2 307.2 0 0 0-307.2-307.2zm256 327.68a30.72 30.72 0 0 1-30.72 30.72H245.76a30.72 30.72 0 0 1-30.72-30.72V921.6a256.41 256.41 0 0 1 256-256h15.36v116.122a25.6 25.6 0 0 0 51.2 0V665.6h15.36a256.41 256.41 0 0 1 256 256z"/></svg>