<svg class="icon" viewBox="0 0 1024 1024" xmlns="http://www.w3.org/2000/svg" width="200" height="200"><defs><style/></defs><path d="M716.8 440.934a25.6 25.6 0 0 0-25.6-25.6H466.534V191.693a25.6 25.6 0 1 0-51.2 0v223.641H191.693a25.6 25.6 0 0 0 0 51.2h223.641v223.847a25.6 25.6 0 0 0 51.2 0V466.534h223.847a25.6 25.6 0 0 0 26.419-25.6z"/><path d="M998.605 962.56L757.76 721.1a424.346 424.346 0 1 0-36.66 36.66l241.46 240.845a25.6 25.6 0 0 0 36.045-36.045zM177.97 703.898A371.917 371.917 0 0 1 703.898 177.97 371.917 371.917 0 0 1 177.97 703.898z"/></svg>