<svg class="icon" viewBox="0 0 1024 1024" xmlns="http://www.w3.org/2000/svg" width="200" height="200"><defs><style/></defs><path d="M512 .008a491.516 491.516 0 0 0-227.326 928.76 26.01 26.01 0 0 0 23.961-46.079 440.316 440.316 0 1 1 406.525 0 25.805 25.805 0 1 0 23.961 45.875A491.516 491.516 0 0 0 512 .008z"/><path d="M819.198 481.694A307.198 307.198 0 1 0 368.64 755.1a26.01 26.01 0 0 0 35.02-11.06 25.805 25.805 0 0 0-11.058-34.815 256.408 256.408 0 1 1 236.542 0 26.01 26.01 0 0 0 13.107 48.537 25.6 25.6 0 0 0 11.878-3.072 307.198 307.198 0 0 0 165.068-272.996z"/><path d="M512 406.943a58.777 58.777 0 0 0-25.805 111.615v479.637a25.805 25.805 0 1 0 51.61 0V518.558A58.777 58.777 0 0 0 512 406.943z"/></svg>