<svg class="icon" viewBox="0 0 1024 1024" xmlns="http://www.w3.org/2000/svg" width="200" height="200"><defs><style/></defs><path d="M439.5 569.549a222.003 222.003 0 0 0-206.847-215.655H219.75A219.955 219.955 0 0 0 0 573.44c0 163.84 127.386 340.582 188.211 415.54a40.96 40.96 0 0 0 23.552 14.335h1.843s7.783 2.048 20.48 4.71a13.926 13.926 0 0 0 4.096 0 20.48 20.48 0 0 0 20.48-16.383 20.48 20.48 0 0 0-1.228-11.264c63.897-77.824 185.753-250.676 182.067-410.83zM51.2 573.44a168.96 168.96 0 0 1 168.55-168.755h10.036A171.827 171.827 0 0 1 389.12 570.778c3.072 143.36-110.797 303.923-168.55 376.012C163.84 875.315 51.2 715.571 51.2 573.44z"/><path d="M155.034 570.573a64.717 64.717 0 1 0 129.433 0 64.717 64.717 0 1 0-129.433 0zM880.64 2.048a143.36 143.36 0 0 0-143.36 143.36c0 90.726 59.392 186.982 102.4 244.531a20.48 20.48 0 0 0-3.072 12.083 20.48 20.48 0 0 0 20.48 18.637h20.275a20.48 20.48 0 0 0 3.482 0h-.205a40.96 40.96 0 0 0 32.154-15.77c42.393-56.729 112.23-160.972 111.206-259.071A143.36 143.36 0 0 0 880.64 2.048zm0 359.424c-59.597-79.462-93.389-156.672-93.389-215.654a92.774 92.774 0 1 1 185.549 0c.614 58.982-32.973 136.192-92.16 215.654z"/><path d="M837.632 143.36a42.394 42.394 0 1 0 43.008-40.96 42.394 42.394 0 0 0-43.008 40.96zM357.376 980.992c-13.312 0-26.214 0-38.298-1.638a20.48 20.48 0 0 0-22.118 18.841 20.48 20.48 0 0 0 18.842 21.914c13.107 0 26.828 1.843 40.96 1.843a20.48 20.48 0 0 0 0-40.96zM660.07 659.661h3.277a20.48 20.48 0 0 0 16.999-23.347c-2.048-13.108-4.096-25.805-5.325-38.298a20.48 20.48 0 0 0-22.323-18.432 20.48 20.48 0 0 0-18.432 22.528c1.433 13.312 3.481 26.624 5.734 40.96a20.48 20.48 0 0 0 20.07 16.589zm4.916-184.935a190.054 190.054 0 0 0-16.59 27.648c-1.842 3.892-3.48 7.783-5.12 11.674a20.48 20.48 0 0 0 12.084 26.624 23.142 23.142 0 0 0 7.373 1.229 20.48 20.48 0 0 0 19.046-13.107c0-2.663 2.253-5.53 3.687-8.397a144.384 144.384 0 0 1 12.902-21.709 20.48 20.48 0 1 0-33.178-23.962zM469.81 968.294a360.243 360.243 0 0 1-36.659 7.783 20.48 20.48 0 0 0 3.277 40.96h3.072a383.386 383.386 0 0 0 40.96-8.602 20.48 20.48 0 1 0-10.855-39.526zm198.861-270.54a20.48 20.48 0 0 0-20.48 20.48v7.577a267.674 267.674 0 0 1-1.638 29.082 20.48 20.48 0 0 0 18.636 23.347h2.458a20.48 20.48 0 0 0 20.48-18.227 302.49 302.49 0 0 0 2.048-33.792v-8.807a20.48 20.48 0 0 0-21.504-19.66zm101.171-299.008a264.806 264.806 0 0 0-39.321 18.022 20.48 20.48 0 0 0-7.578 27.853 20.48 20.48 0 0 0 17.818 10.445 20.48 20.48 0 0 0 10.035-2.663 231.22 231.22 0 0 1 32.973-15.155 20.48 20.48 0 0 0 12.288-26.42 20.48 20.48 0 0 0-26.215-12.082zm-204.8 518.553a186.982 186.982 0 0 1-28.057 21.914 20.48 20.48 0 0 0 11.059 37.683 22.118 22.118 0 0 0 11.059-3.072 220.774 220.774 0 0 0 34.816-27.034 20.48 20.48 0 1 0-28.262-29.49zm90.317-101.785a20.48 20.48 0 0 0-27.034 10.24 342.63 342.63 0 0 1-17.408 32.972 20.48 20.48 0 0 0 6.759 28.058 20.48 20.48 0 0 0 10.65 3.072 20.48 20.48 0 0 0 17.612-9.83 365.978 365.978 0 0 0 20.48-37.479 20.48 20.48 0 0 0-11.059-27.033z"/></svg>