<svg class="icon" viewBox="0 0 1032 1024" xmlns="http://www.w3.org/2000/svg" width="201.563" height="200"><defs><style/></defs><path d="M941.9 149.094a310.477 310.477 0 0 0-421.274-14.745 309.862 309.862 0 0 0-421.274 454.86l344.884 344.884a106.7 106.7 0 0 0 151.142 0l257.024-257.229 30.31-30.106 59.188-59.187a310.272 310.272 0 0 0 0-438.477zm-462.234 748.75L135.602 552.96a258.867 258.867 0 0 1 348.16-383.18l-180.02 180.838a26.01 26.01 0 0 0 0 36.25 188.211 188.211 0 0 0 266.24 0l66.97-65.946L846.668 532.48a55.91 55.91 0 0 1 16.179 39.526 55.091 55.091 0 0 1-16.384 39.322l-24.986 23.552-102.4-102.4a25.6 25.6 0 0 0-36.045 36.25l102.4 102.4-64.512 64.307-102.4-102.4a25.6 25.6 0 0 0-36.454 36.454l102.4 102.4-63.283 63.079-102.4-102.4a25.6 25.6 0 1 0-36.25 36.25l102.4 102.4-26.214 26.214a56.73 56.73 0 0 1-79.053.41zm430.08-352.052a105.677 105.677 0 0 0-28.058-50.176l-209.51-210.534 15.36-15.156a25.6 25.6 0 0 0-35.84-36.454L532.709 350.618a137.216 137.216 0 0 1-174.08 16.384l180.839-181.658A258.867 258.867 0 0 1 910.77 545.792z"/></svg>